<?xml version="1.0" encoding="UTF-8" standalone="no"?>
<!DOCTYPE svg  PUBLIC '-//W3C//DTD SVG 1.1//EN'  'http://www.w3.org/Graphics/SVG/1.1/DTD/svg11.dtd'>
<svg xmlns="http://www.w3.org/2000/svg">
<defs>
<font id="Circe-Bold" horiz-adv-x="596">
<font-face underline-position="-50" font-weight="700" descent="-200" panose-1="2 11 6 2 2 2 3 2 2 3" units-per-em="1000" unicode-range="U+0020-2666" bbox="-180 -255 1307 911" x-height="450" underline-thickness="50" font-family="Circe" ascent="800" cap-height="700"/>
<missing-glyph horiz-adv-x="1000"/>
<glyph glyph-name=".notdef" horiz-adv-x="1000"/>
<glyph glyph-name=".null" horiz-adv-x="0"/>
<glyph glyph-name="nonmarkingreturn" horiz-adv-x="333"/>
<glyph glyph-name="space" horiz-adv-x="212" unicode=" "/>
<glyph glyph-name="exclam" horiz-adv-x="310" unicode="!" d="M78 75q0 28 22 51t58 23q31 0 52 -23t21 -51q0 -32 -21 -56t-52 -24q-36 0 -58 24t-22 56zM94 242v458h122v-458h-122z"/>
<glyph glyph-name="quotedbl" horiz-adv-x="432" unicode='&quot;' d="M67 459v241h115v-241h-115zM249 459v241h115v-241h-115z"/>
<glyph glyph-name="numbersign" horiz-adv-x="724" unicode="#" d="M308 420l-52 -140h153l51 140h-152zM313 21l59 159h-153l-71 -191l-89 31l59 160h-78v100h115l52 140h-167v100h205l71 191l89 -32l-59 -159h151l71 191l89 -31l-59 -160h86v-100h-123l-52 -140h175v-100h-212l-70 -191z"/>
<glyph glyph-name="dollar" d="M398 186q0 28 -17.5 49.5t-45.5 37t-61.5 30t-67.5 33t-62 41t-45.5 59t-17.5 82.5q0 67 45 119t120 68v85h115v-83q95 -15 146 -71l-66 -92q-54 52 -124 52q-52 0 -79 -20.5t-27 -56.5q0 -34 23.5 -59t58.5 -39.5t76.5 -34.5t76.5 -41.5t58.5 -62t23.5 -95.5 q0 -74 -46 -125.5t-121 -66.5v-95h-115v94q-59 10 -106.5 37t-66.5 68l70 84q29 -38 73.5 -58.5t87.5 -20.5q44 0 69 21.5t25 60.5z" unicode="$"/>
<glyph glyph-name="percent" horiz-adv-x="911" unicode="%" d="M587 169q0 -39 25.5 -62.5t63.5 -23.5q40 0 65 23.5t25 62.5q0 38 -25.5 61.5t-64.5 23.5q-38 0 -63.5 -23.5t-25.5 -61.5zM479 169q0 80 55.5 129t141.5 49t141.5 -49t55.5 -129t-55.5 -129.5t-141.5 -49.5t-141.5 49.5t-55.5 129.5zM145 531q0 -39 25.5 -62.5 t63.5 -23.5q40 0 65 23.5t25 62.5q0 38 -25.5 61.5t-64.5 23.5q-38 0 -63.5 -23.5t-25.5 -61.5zM37 531q0 80 55.5 129t141.5 49t141.5 -49t55.5 -129t-55.5 -129.5t-141.5 -49.5t-141.5 49.5t-55.5 129.5zM170 35l505 676l65 -49l-504 -673z"/>
<glyph glyph-name="ampersand" horiz-adv-x="753" unicode="&amp;" d="M242 559q0 -24 17 -41t42 -17t42 17t17 41q0 25 -17.5 42t-41.5 17q-25 0 -42 -17t-17 -42zM299 104q88 0 133 61l-142 194q-53 -43 -76.5 -75.5t-23.5 -70.5q0 -46 31.5 -77.5t77.5 -31.5zM560 0l-59 73q-76 -84 -206 -84q-105 0 -170 56.5t-65 144.5q0 79 39.5 130.5 t115.5 104.5q-80 38 -80 134q0 69 49 110.5t117 41.5t117 -41.5t49 -110.5q0 -46 -26.5 -84.5t-63.5 -50.5l136 -177q47 92 47 203h114q0 -172 -92 -295l121 -155h-143z"/>
<glyph glyph-name="quotesingle" horiz-adv-x="250" unicode="&apos;" d="M67 459v241h115v-241h-115z"/>
<glyph glyph-name="parenleft" horiz-adv-x="315" unicode="(" d="M315 -143l-73 -63q-202 174 -202 431q0 248 203 431l71 -63q-82 -81 -120.5 -169.5t-38.5 -198.5q0 -107 43.5 -203.5t116.5 -164.5z"/>
<glyph glyph-name="parenright" horiz-adv-x="315" unicode=")" d="M73 -206l-73 63q73 68 116.5 164.5t43.5 203.5q0 110 -38.5 198.5t-120.5 169.5l71 63q203 -183 203 -431q0 -257 -202 -431z"/>
<glyph glyph-name="asterisk" horiz-adv-x="540" unicode="*" d="M55 568q0 29 21.5 51t50.5 22q31 0 52.5 -21.5t21.5 -51.5t-21.5 -51t-52.5 -21q-29 0 -50.5 21t-21.5 51zM55 405q0 30 21.5 52t50.5 22q31 0 52.5 -22t21.5 -52q0 -29 -21.5 -50t-52.5 -21q-29 0 -50.5 21t-21.5 50zM339 405q0 30 22 52t51 22q30 0 51.5 -22t21.5 -52 q0 -29 -21.5 -50t-51.5 -21q-29 0 -51 21t-22 50zM339 568q0 29 22 51t51 22q30 0 51.5 -22t21.5 -51q0 -30 -21.5 -51t-51.5 -21t-51.5 21t-21.5 51zM197 332q0 30 21 52t51 22q29 0 50.5 -22t21.5 -52q0 -29 -21.5 -50t-50.5 -21q-30 0 -51 21t-21 50zM199 638 q0 30 21.5 51t51.5 21q29 0 50.5 -21.5t21.5 -50.5q0 -30 -21 -51.5t-51 -21.5q-31 0 -52 21t-21 52z"/>
<glyph glyph-name="plus" d="M66 310v100h177v181h108v-181h179v-100h-179v-183h-108v183h-177z" unicode="+"/>
<glyph glyph-name="comma" horiz-adv-x="252" unicode="," d="M47 64q0 32 20.5 52.5t56.5 20.5q40 0 64 -31.5t24 -80.5q0 -63 -33.5 -108t-93.5 -62l-31 54q44 16 61 53q11 22 11 37q0 3 -2 9q-6 -8 -26 -8t-35.5 18.5t-15.5 45.5z"/>
<glyph glyph-name="hyphen" horiz-adv-x="376" unicode="-" d="M62 220v107h252v-107h-252z"/>
<glyph glyph-name="period" horiz-adv-x="243" unicode="." d="M45 75q0 28 22 51t58 23q31 0 52 -23t21 -51q0 -32 -21 -56t-52 -24q-36 0 -58 24t-22 56z"/>
<glyph glyph-name="slash" horiz-adv-x="359" unicode="/" d="M-30 -175l330 886l89 -33l-330 -886z"/>
<glyph glyph-name="zero" horiz-adv-x="554" unicode="0" d="M165 350q0 -251 114 -251q59 0 84.5 59.5t25.5 191.5q0 131 -26 190.5t-86 59.5q-59 0 -85.5 -61t-26.5 -189zM42 350q0 166 59 262t176 96q116 0 175 -96t59 -262q0 -167 -58 -262.5t-174 -95.5q-117 0 -177 96t-60 262z"/>
<glyph glyph-name="one" horiz-adv-x="389" unicode="1" d="M22 568l179 134h83v-702h-115v538l-86 -65z"/>
<glyph glyph-name="two" horiz-adv-x="524" unicode="2" d="M37 0v92q127 125 167 171q124 142 124 239q0 43 -23 67t-66 24q-37 0 -63.5 -24.5t-37.5 -69.5l-96 43q14 77 70.5 121.5t139.5 44.5q94 0 146 -54t52 -129q0 -55 -23 -114.5t-53 -103.5t-72.5 -90t-66 -67.5t-49.5 -42.5h291v-107h-440z"/>
<glyph glyph-name="three" horiz-adv-x="530" unicode="3" d="M244 -11q-78 0 -136 31.5t-86 86.5l65 84q59 -87 150 -87q54 0 83.5 27.5t29.5 69.5q0 48 -34.5 73.5t-95.5 25.5h-50v115h45q45 0 76.5 26.5t31.5 69.5q0 39 -22.5 62t-66.5 23q-81 0 -132 -75l-64 81q58 109 207 109q91 0 146 -48t55 -130q0 -119 -107 -166v-3 q64 -11 99 -57t35 -110q0 -95 -65 -151.5t-164 -56.5z"/>
<glyph glyph-name="four" horiz-adv-x="565" unicode="4" d="M335 0v162h-320v85l270 453h132l-253 -423h171v173h115v-173h90v-115h-90v-162h-115z"/>
<glyph glyph-name="five" horiz-adv-x="514" unicode="5" d="M81 328l46 372h331v-115h-230l-20 -139q22 4 40 4q95 0 157.5 -61t62.5 -162q0 -110 -69 -174t-172 -64q-59 0 -116.5 26.5t-88.5 73.5l66 87q22 -32 62 -52t80 -20q50 0 82.5 33t32.5 85q0 54 -40 89t-109 35q-73 0 -115 -18z"/>
<glyph glyph-name="six" horiz-adv-x="559" unicode="6" d="M167 247q0 -62 34 -102.5t95 -40.5q46 0 74.5 31.5t28.5 75.5q0 50 -29.5 82.5t-83.5 32.5q-43 0 -73 -23t-46 -56zM45 248q0 92 32 174.5t83 140t110.5 95.5t118.5 53l47 -87q-90 -27 -159.5 -93t-95.5 -163q47 65 144 65q82 0 139 -60t57 -154q0 -105 -68 -167.5 t-158 -62.5q-114 0 -182 75t-68 184z"/>
<glyph glyph-name="seven" horiz-adv-x="497" unicode="7" d="M25 585v115h440v-77l-248 -623h-126l236 585h-302z"/>
<glyph glyph-name="eight" horiz-adv-x="600" unicode="8" d="M300 -11q-105 0 -174 52.5t-69 139.5q0 65 33.5 112t86.5 65v3q-43 18 -71.5 62.5t-28.5 103.5q0 81 64 132.5t158 51.5q95 0 159.5 -51.5t64.5 -132.5q0 -52 -29 -98t-79 -67v-3q54 -11 90.5 -56.5t36.5 -111.5q0 -94 -68.5 -148t-173.5 -54zM310 302h-17 q-46 0 -79.5 -27t-33.5 -72q0 -43 32 -71t87 -28q59 0 90 27t31 70q0 48 -31 74.5t-79 26.5zM291 417h19q39 0 64.5 27t25.5 63q0 42 -28 65.5t-74 23.5q-45 0 -72 -25t-27 -64q0 -36 26 -63t66 -27z"/>
<glyph glyph-name="nine" horiz-adv-x="555" unicode="9" d="M388 445q0 64 -33 107.5t-93 43.5q-47 0 -78.5 -33t-31.5 -77q0 -48 32 -82.5t85 -34.5q83 0 119 76zM510 444q0 -195 -101.5 -315.5t-257.5 -139.5l-38 91q218 44 261 244q-46 -63 -133 -63q-89 0 -150 62t-61 155q0 105 71 169t161 64q115 0 181.5 -74t66.5 -193z"/>
<glyph glyph-name="colon" horiz-adv-x="318" unicode=":" d="M82 75q0 28 22 51t58 23q31 0 52 -23t21 -51q0 -32 -21 -56t-52 -24q-36 0 -58 24t-22 56zM82 387q0 28 22 51t58 23q31 0 52 -23t21 -51q0 -32 -21 -56t-52 -24q-36 0 -58 24t-22 56z"/>
<glyph glyph-name="semicolon" horiz-adv-x="324" unicode=";" d="M83 64q0 32 20.5 52.5t56.5 20.5q40 0 64 -31.5t24 -80.5q0 -63 -33.5 -108t-93.5 -62l-31 54q44 16 61 53q11 22 11 37q0 3 -2 9q-6 -8 -26 -8t-35.5 18.5t-15.5 45.5zM82 387q0 28 22 51t58 23q31 0 52 -23t21 -51q0 -32 -21 -56t-52 -24q-36 0 -58 24t-22 56z"/>
<glyph glyph-name="less" d="M513 66l-464 271v49l464 269v-124l-306 -169l306 -171v-125z" unicode="&lt;"/>
<glyph glyph-name="equal" d="M66 215v100h464v-100h-464zM66 405v100h464v-100h-464z" unicode="="/>
<glyph glyph-name="greater" d="M547 337l-465 -271v125l307 171l-307 169v124l465 -269v-49z" unicode="&gt;"/>
<glyph glyph-name="question" horiz-adv-x="473" unicode="?" d="M140 75q0 28 22 51t57 23q32 0 53 -23t21 -51q0 -32 -21 -56t-53 -24q-35 0 -57 24t-22 56zM325 510q0 36 -27 61t-67 25q-74 0 -123 -64l-68 77q28 45 80.5 73.5t117.5 28.5q97 0 153.5 -50.5t56.5 -125.5q0 -52 -19 -91.5t-46 -63.5t-53.5 -44.5t-45.5 -45.5t-19 -54 q0 -6 2 -18l-105 -1q-3 18 -3 34q0 39 17 68.5t41.5 48.5t49 37.5t41.5 44.5t17 60z"/>
<glyph glyph-name="at" horiz-adv-x="996" unicode="@" d="M496 96q60 0 103 47v188q-46 22 -88 22q-63 0 -98.5 -38.5t-35.5 -94.5q0 -58 32.5 -91t86.5 -33zM599 0v36q-50 -47 -124 -47q-101 0 -161 65t-60 171q0 100 73 168t185 68q116 0 202 -54v-300h20q42 0 69.5 45.5t27.5 120.5q0 120 -88.5 202.5t-234.5 82.5t-244.5 -91 t-98.5 -242q0 -144 99.5 -238.5t243.5 -94.5q57 0 108 12l5 -107q-59 -13 -113 -13q-195 0 -323 124.5t-128 316.5q0 186 129 313t322 127q186 0 308 -108.5t122 -283.5q0 -109 -59.5 -189t-164.5 -84h-115z"/>
<glyph glyph-name="A" horiz-adv-x="715" unicode="A" d="M354 543l-103 -249h205zM7 0l296 702h108l296 -702h-131l-73 179h-299l-73 -179h-124z"/>
<glyph glyph-name="B" horiz-adv-x="617" unicode="B" d="M297 588q-44 0 -77 -3v-177h83q46 0 75 23.5t29 69.5q0 42 -29.5 64.5t-80.5 22.5zM307 301h-87v-185q42 -5 81 -5q128 0 128 101q0 44 -32 66.5t-90 22.5zM97 1v697q98 5 202 5q119 0 174.5 -47.5t55.5 -125.5q0 -112 -100 -159v-2q55 -14 89 -55t34 -108 q0 -104 -71.5 -157t-188.5 -53q-127 0 -195 5z"/>
<glyph glyph-name="C" horiz-adv-x="655" unicode="C" d="M583 160l47 -92q-33 -35 -94.5 -57t-129.5 -22q-161 0 -261 99t-100 262q0 157 95 259t263 102q135 0 213 -71l-55 -91q-71 47 -158 47q-99 0 -163.5 -67t-64.5 -179q0 -109 67.5 -177.5t174.5 -68.5q93 0 166 56z"/>
<glyph glyph-name="D" horiz-adv-x="741" unicode="D" d="M301 588q-39 0 -81 -3v-470q34 -2 79 -2q125 0 196 66t71 178q0 107 -70.5 169t-194.5 62zM97 0v700h13q20 0 93 1.5t100 1.5q102 0 179 -27.5t123 -76.5t68.5 -109.5t22.5 -132.5q0 -156 -104.5 -257.5t-296.5 -101.5q-18 0 -83.5 1t-100.5 1h-14z"/>
<glyph glyph-name="E" horiz-adv-x="575" unicode="E" d="M97 0v700h405v-115h-282v-174h252v-115h-252v-181h292v-115h-415z"/>
<glyph glyph-name="F" horiz-adv-x="537" unicode="F" d="M97 0v700h400v-115h-277v-198h247v-115h-247v-272h-123z"/>
<glyph glyph-name="G" horiz-adv-x="727" unicode="G" d="M388 262v115h284v-290q-45 -45 -119.5 -71.5t-142.5 -26.5q-170 0 -267.5 98t-97.5 263q0 154 96 257.5t253 103.5q135 0 225 -71l-52 -98q-26 25 -69 39.5t-89 14.5q-104 0 -169 -65.5t-65 -180.5q0 -111 65 -178.5t172 -67.5q40 0 82.5 14.5t62.5 33.5v110h-169z"/>
<glyph glyph-name="H" horiz-adv-x="759" unicode="H" d="M540 0v299h-320v-299h-123v700h123v-286h320v286h122v-700h-122z"/>
<glyph glyph-name="I" horiz-adv-x="347" unicode="I" d="M112 0v700h123v-700h-123z"/>
<glyph glyph-name="J" horiz-adv-x="390" unicode="J" d="M293 700v-535q0 -85 -42.5 -130.5t-126.5 -45.5q-38 0 -71 13t-48 30l40 94q29 -22 62 -22q63 0 63 82v514h123z"/>
<glyph glyph-name="K" horiz-adv-x="672" unicode="K" d="M97 0v700h123v-332l276 332h148l-288 -326l306 -374h-156l-286 361v-361h-123z"/>
<glyph glyph-name="L" horiz-adv-x="547" unicode="L" d="M97 0v700h123v-585h315v-115h-438z"/>
<glyph glyph-name="M" horiz-adv-x="901" unicode="M" d="M97 0v700h124l239 -327l228 327h116v-700h-122v506l-221 -311h-18l-223 308v-503h-123z"/>
<glyph glyph-name="N" horiz-adv-x="792" unicode="N" d="M695 0h-98l-385 485v-485h-115v700h98l385 -487v487h115v-700z"/>
<glyph glyph-name="O" horiz-adv-x="819" unicode="O" d="M175 350q0 -105 67.5 -175.5t166.5 -70.5q108 0 171.5 70t63.5 176q0 108 -67.5 177t-167.5 69q-101 0 -167.5 -69t-66.5 -177zM45 350q0 154 102.5 257.5t261.5 103.5q158 0 261.5 -100t103.5 -261q0 -157 -104 -259t-261 -102q-158 0 -261 100t-103 261z"/>
<glyph glyph-name="P" horiz-adv-x="612" unicode="P" d="M308 587q-22 0 -88 -2v-215q48 -5 87 -5q58 0 94 28.5t36 84.5q0 109 -129 109zM220 0h-123v700q18 0 95.5 1t103.5 1q74 0 128.5 -18.5t84.5 -51t44 -71t14 -84.5q0 -95 -68 -161t-188 -66q-61 0 -91 3v-253z"/>
<glyph glyph-name="Q" horiz-adv-x="819" unicode="Q" d="M175 350q0 -105 67.5 -175.5t166.5 -70.5q56 0 105 22l-59 69l80 72l62 -73q47 66 47 156q0 108 -67.5 177t-167.5 69q-101 0 -167.5 -69t-66.5 -177zM45 350q0 154 102.5 257.5t261.5 103.5q158 0 261.5 -100t103.5 -261q0 -149 -96 -250l86 -100h-143l-29 33 q-80 -44 -183 -44q-158 0 -261 100t-103 261z"/>
<glyph glyph-name="R" horiz-adv-x="658" unicode="R" d="M304 587q-18 0 -84 -2v-208h80q57 0 95.5 28.5t38.5 79.5q0 102 -130 102zM220 0h-123v700q22 0 113.5 1t99.5 1q254 0 254 -216q0 -81 -41 -131.5t-94 -68.5l219 -286h-149l-193 262h-86v-262z"/>
<glyph glyph-name="S" horiz-adv-x="553" unicode="S" d="M378 186q0 28 -17.5 49.5t-45.5 37t-61.5 30t-67.5 33t-62 41t-45.5 59t-17.5 82.5q0 82 59.5 137.5t158.5 55.5q132 0 200 -75l-66 -92q-54 52 -124 52q-45 0 -71.5 -21t-26.5 -56q0 -34 23.5 -59t58.5 -39.5t76.5 -34.5t76.5 -41.5t58.5 -62t23.5 -95.5 q0 -87 -67 -142.5t-167 -55.5q-72 0 -138.5 29.5t-90.5 80.5l70 84q29 -38 73.5 -58.5t87.5 -20.5q45 0 73.5 21.5t28.5 60.5z"/>
<glyph glyph-name="T" horiz-adv-x="597" unicode="T" d="M10 585v115h577v-115h-227v-585h-123v585h-227z"/>
<glyph glyph-name="U" horiz-adv-x="751" unicode="U" d="M663 700v-410q0 -151 -79 -226t-199 -75q-135 0 -216.5 79.5t-81.5 228.5v403h123v-377q0 -102 43.5 -160.5t131.5 -58.5q156 0 156 211v385h122z"/>
<glyph glyph-name="V" horiz-adv-x="656" unicode="V" d="M658 700l-280 -702h-93l-288 702h131l208 -519l199 519h123z"/>
<glyph glyph-name="W" horiz-adv-x="985" unicode="W" d="M980 700l-200 -700h-115l-169 506l-166 -506h-116l-209 700h138l141 -499l156 499h122l160 -500l140 500h118z"/>
<glyph glyph-name="X" horiz-adv-x="669" unicode="X" d="M650 700l-236 -343l245 -357h-144l-181 263l-180 -263h-144l245 357l-234 343h144l172 -253l169 253h144z"/>
<glyph glyph-name="Y" horiz-adv-x="629" unicode="Y" d="M624 700l-249 -408v-292h-123v292l-247 408h140l174 -293l172 293h133z"/>
<glyph glyph-name="Z" horiz-adv-x="642" unicode="Z" d="M60 585v115h532v-85l-388 -500h398v-115h-562v84l387 501h-367z"/>
<glyph glyph-name="bracketleft" horiz-adv-x="350" unicode="[" d="M60 -200v850h275v-108h-160v-635h160v-107h-275z"/>
<glyph glyph-name="backslash" horiz-adv-x="359" unicode="\" d="M58 711l331 -886l-90 -33l-329 886z"/>
<glyph glyph-name="bracketright" horiz-adv-x="350" unicode="]" d="M290 650v-850h-275v107h160v635h-160v108h275z"/>
<glyph glyph-name="asciicircum" horiz-adv-x="507" unicode="^" d="M30 450l185 258h79l183 -258h-125l-98 143l-100 -143h-124z"/>
<glyph glyph-name="underscore" horiz-adv-x="344" unicode="_" d="M0 -200v115h344v-115h-344z"/>
<glyph glyph-name="grave" horiz-adv-x="315" unicode="`" d="M187 517l-127 143l91 68l104 -163z"/>
<glyph glyph-name="a" horiz-adv-x="463" unicode="a" d="M214 91q58 0 87 41v46q-29 22 -79 22q-31 0 -51.5 -14.5t-20.5 -41.5q0 -25 18 -39t46 -14zM99 334l-29 84q73 43 159 43q96 0 138 -47t42 -140v-274h-100v52q-41 -58 -133 -58q-63 0 -102 37t-39 101q0 71 46 108.5t118 37.5q62 0 102 -29v14q0 52 -19 77t-65 25 q-50 0 -118 -31z"/>
<glyph glyph-name="b" horiz-adv-x="548" unicode="b" d="M271 353q-55 0 -92 -43v-191q36 -23 82 -23q56 0 92 34.5t36 93.5q0 62 -33.5 95.5t-84.5 33.5zM64 39v661h115v-278q50 39 119 39q99 0 156.5 -63.5t57.5 -165.5q0 -111 -69.5 -177t-187.5 -66q-53 0 -105.5 14.5t-85.5 35.5z"/>
<glyph glyph-name="c" horiz-adv-x="487" unicode="c" d="M405 151l54 -84q-28 -38 -75.5 -58t-103.5 -20q-110 0 -177 65t-67 171q0 100 66 168t167 68q120 0 181 -61l-54 -91q-45 44 -112 44q-50 0 -87.5 -35.5t-37.5 -92.5q0 -58 38.5 -93.5t91.5 -35.5q66 0 116 55z"/>
<glyph glyph-name="d" horiz-adv-x="556" unicode="d" d="M272 99q59 0 105 46v181q-43 27 -89 27q-54 0 -91.5 -34.5t-37.5 -94.5q0 -58 32.5 -91.5t80.5 -33.5zM377 0v47q-52 -55 -129 -55q-96 0 -154 62.5t-58 165.5q0 106 69 173.5t178 67.5q57 0 94 -22v261h115v-700h-115z"/>
<glyph glyph-name="e" horiz-adv-x="516" unicode="e" d="M269 365q-98 0 -118 -98h221q1 42 -27 70t-76 28zM417 126l33 -81q-66 -56 -172 -56q-109 0 -175.5 65t-66.5 171q0 101 65 168.5t173 67.5q89 0 151 -58.5t62 -150.5q0 -38 -7 -62h-325q7 -50 44 -77.5t91 -27.5q76 0 127 41z"/>
<glyph glyph-name="f" horiz-adv-x="325" unicode="f" d="M69 0v523q0 92 42 140t118 48q86 0 126 -42l-39 -88q-22 22 -66 22q-66 0 -66 -89v-64h122v-108h-122v-342h-115z"/>
<glyph glyph-name="g" horiz-adv-x="499" unicode="g" d="M154 292q0 -32 23 -52.5t61 -20.5q37 0 60.5 20t23.5 53t-22.5 54.5t-61.5 21.5q-38 0 -61 -22t-23 -54zM112 -61q0 -26 34 -40.5t93 -14.5q126 0 126 55q0 25 -32.5 40t-93.5 15q-60 0 -93.5 -15t-33.5 -40zM5 -61q0 54 39.5 89.5t106.5 49.5q-8 14 -8 31q0 19 10 32 q-50 20 -78.5 60.5t-28.5 90.5q0 70 53 119.5t139 49.5q65 0 115 -32l136 30l4 -92l-75 -17q11 -28 11 -58q0 -69 -53 -117.5t-138 -48.5h-8q-2 -6 -2 -17q0 -13 6 -23h5q104 0 169 -37t65 -110t-65 -110t-169 -37q-105 0 -169.5 36.5t-64.5 110.5z"/>
<glyph glyph-name="h" horiz-adv-x="546" unicode="h" d="M64 0v700h115v-291q51 49 129 49q87 0 136 -47.5t49 -149.5v-261h-115v246q0 50 -26 77t-74 27q-58 0 -99 -41v-309h-115z"/>
<glyph glyph-name="i" horiz-adv-x="277" unicode="i" d="M69 612q0 30 21 48.5t51 18.5q26 0 46 -18.5t20 -48.5q0 -33 -20 -52.5t-46 -19.5q-31 0 -51.5 19.5t-20.5 52.5zM81 0v450h115v-450h-115z"/>
<glyph glyph-name="j" horiz-adv-x="284" unicode="j" d="M76 612q0 30 21 48.5t51 18.5q26 0 46 -18.5t20 -48.5q0 -33 -20 -52.5t-46 -19.5q-31 0 -51.5 19.5t-20.5 52.5zM202 450v-483q0 -175 -141 -175q-74 0 -110 32l31 91q26 -16 51 -16q54 0 54 78v473h115z"/>
<glyph glyph-name="k" horiz-adv-x="514" unicode="k" d="M64 0v700h115v-700h-115zM487 450l-169 -206l189 -244h-148l-178 235l161 215h145z"/>
<glyph glyph-name="l" horiz-adv-x="299" unicode="l" d="M64 124v576h115v-529q0 -73 39 -73q22 0 47 18l24 -88q-47 -38 -119 -38q-106 0 -106 134z"/>
<glyph glyph-name="m" horiz-adv-x="800" unicode="m" d="M747 294v-294h-115v264q0 86 -77 86q-66 0 -93 -52q0 -3 0.5 -15.5t0.5 -17.5v-265h-115v272q0 36 -19.5 57t-55.5 21q-62 0 -94 -48v-302h-115v450h115v-50q52 58 141 58q50 0 84 -20t47 -52q55 72 152 72q144 0 144 -164z"/>
<glyph glyph-name="n" horiz-adv-x="546" unicode="n" d="M64 0v450h115v-45q49 53 129 53q185 0 185 -194v-264h-115v244q0 106 -101 106q-55 0 -98 -43v-307h-115z"/>
<glyph glyph-name="o" horiz-adv-x="562" unicode="o" d="M159 225q0 -56 34.5 -92.5t87.5 -36.5q54 0 88.5 35.5t34.5 93.5q0 56 -35 92t-88 36q-52 0 -87 -35.5t-35 -92.5zM36 225q0 103 67.5 169.5t177.5 66.5t177.5 -66.5t67.5 -169.5t-67.5 -169.5t-177.5 -66.5t-177.5 66.5t-67.5 169.5z"/>
<glyph glyph-name="p" horiz-adv-x="558" unicode="p" d="M282 353q-59 0 -103 -49v-182q40 -26 95 -26q58 0 92 37.5t34 95.5q0 55 -31 89.5t-87 34.5zM64 -200v650h115v-43q22 23 59.5 38.5t79.5 15.5q92 0 148 -64t56 -165q0 -105 -66 -174t-172 -69q-67 0 -105 22v-211h-115z"/>
<glyph glyph-name="q" horiz-adv-x="559" unicode="q" d="M285 96q58 0 96 41v194q-46 22 -88 22q-63 0 -98.5 -38.5t-35.5 -94.5q0 -54 34.5 -89t91.5 -35zM381 -200v223q-53 -34 -111 -34q-107 0 -170.5 64.5t-63.5 171.5q0 100 73 168t185 68q116 0 202 -54v-607h-115z"/>
<glyph glyph-name="r" horiz-adv-x="354" unicode="r" d="M64 0v450h115v-44q38 52 103 52q47 0 70 -17l-41 -108q-29 17 -58 17q-50 0 -74 -48v-302h-115z"/>
<glyph glyph-name="s" horiz-adv-x="444" unicode="s" d="M292 127q0 20 -25 32.5t-61 22t-71.5 23t-60.5 43.5t-25 76q0 64 46.5 100.5t118.5 36.5q110 0 171 -57l-43 -82q-55 43 -122 43q-25 0 -40.5 -11.5t-15.5 -27.5q0 -17 18 -29.5t45 -18.5t58.5 -17t58.5 -24t45 -40t18 -64q0 -66 -49.5 -105t-132.5 -39q-58 0 -114.5 25 t-73.5 52l56 75q20 -22 63 -39t77 -17q26 0 42.5 11t16.5 31z"/>
<glyph glyph-name="t" horiz-adv-x="360" unicode="t" d="M54 171v404h115v-125h145v-108h-145v-164q0 -81 54 -81q34 0 69 26l35 -89q-54 -44 -133 -44q-74 0 -107 45.5t-33 135.5z"/>
<glyph glyph-name="u" horiz-adv-x="535" unicode="u" d="M471 450v-450h-115v55q-54 -66 -144 -66q-70 0 -114 47t-44 139v275h115v-251q0 -103 86 -103q59 0 101 55v299h115z"/>
<glyph glyph-name="v" horiz-adv-x="481" unicode="v" d="M483 450l-194 -452h-85l-207 452h137l83 -193q22 -49 34 -102q13 56 33 104l78 191h121z"/>
<glyph glyph-name="w" horiz-adv-x="721" unicode="w" d="M716 450l-142 -452h-103l-96 250q-4 10 -9 30t-6 23q-6 -29 -16 -55l-95 -248h-98l-146 452h123l72 -245q4 -12 13 -60q12 47 17 60l84 245h102l87 -244q7 -20 17 -62q4 21 14 65l66 241h116z"/>
<glyph glyph-name="x" horiz-adv-x="522" unicode="x" d="M494 450l-150 -215l160 -235h-140l-105 162l-109 -162h-133l160 229l-150 221h141l95 -149l98 149h133z"/>
<glyph glyph-name="y" horiz-adv-x="503" unicode="y" d="M498 450l-177 -450q-48 -117 -85.5 -158.5t-88.5 -41.5q-49 0 -97 35l37 87q27 -16 47 -16q41 0 69 70l10 24l-208 450h138l105 -246q6 -15 22 -65q8 44 16 66l81 245h131z"/>
<glyph glyph-name="z" horiz-adv-x="490" unicode="z" d="M57 342v108h390v-83l-244 -260h239v-107h-400v83l244 259h-229z"/>
<glyph glyph-name="braceleft" horiz-adv-x="362" unicode="{" d="M110 -54v131q0 52 -26 75t-61 23h-3v100q35 0 62.5 25t27.5 85v112q0 79 36 116t121 37h75v-108h-46q-40 0 -55.5 -18t-15.5 -67v-117q0 -48 -20.5 -78.5t-54.5 -35.5q75 -9 75 -114v-119q0 -46 17.5 -66t59.5 -20h40v-107h-82q-75 0 -112.5 34t-37.5 112z"/>
<glyph glyph-name="bar" horiz-adv-x="340" unicode="|" d="M112 0v700h115v-700h-115z"/>
<glyph glyph-name="braceright" horiz-adv-x="362" unicode="}" d="M252 77v-131q0 -78 -37.5 -112t-111.5 -34h-83v107h40q42 0 59.5 20t17.5 66v119q0 105 75 114q-34 5 -54.5 35.5t-20.5 78.5v117q0 49 -15.5 67t-55.5 18h-46v108h75q86 0 121.5 -37t35.5 -116v-112q0 -60 27.5 -85t62.5 -25v-100h-3q-35 0 -61 -23t-26 -75z"/>
<glyph glyph-name="asciitilde" d="M92 288l-50 74q70 80 146 80q42 0 118 -34t115 -34q48 0 88 45l45 -79q-70 -66 -134 -66q-41 0 -116 34t-109 34q-49 0 -103 -54z" unicode="~"/>
<glyph glyph-name="uni00A0" horiz-adv-x="212" unicode=" "/>
<glyph glyph-name="exclamdown" horiz-adv-x="310" unicode="¡" d="M232 381q0 -28 -22 -51t-58 -23q-31 0 -52 23t-21 51q0 32 21 56t52 24q36 0 58 -24t22 -56zM216 214v-458h-122v458h122z"/>
<glyph glyph-name="cent" d="M456 151l54 -84q-45 -59 -132 -74v-113h-115v117q-82 18 -129 78.5t-47 149.5q0 84 48.5 147.5t127.5 81.5v110h115v-107q77 -13 123 -57l-54 -91q-45 44 -112 44q-50 0 -87.5 -35.5t-37.5 -92.5q0 -58 38.5 -93.5t91.5 -35.5q66 0 116 55z" unicode="¢"/>
<glyph glyph-name="sterling" d="M68 265v92h80q-4 8 -17 33.5t-18.5 39t-11.5 37.5t-6 48q0 83 63.5 138t162.5 55q124 0 196 -79l-63 -90q-58 54 -128 54q-44 0 -72.5 -25t-28.5 -62q0 -36 26.5 -86.5t30.5 -62.5h150v-92h-140q-7 -53 -55 -108q13 -3 77 -24.5t99 -21.5q61 0 108 45l51 -90 q-68 -70 -161 -70q-39 0 -114 26t-114 26q-51 0 -106 -55l-46 92q41 48 94 67q46 60 47 113h-104z" unicode="£"/>
<glyph glyph-name="currency" d="M175 342q0 -54 33.5 -90.5t89.5 -36.5q58 0 90.5 36.5t32.5 90.5q0 57 -33 92t-90 35q-56 0 -89.5 -35t-33.5 -92zM68 342q0 70 35 125l-77 79l70 70l78 -79q54 32 124 32q69 0 123 -32l81 80l70 -70l-79 -79q36 -58 36 -126q0 -69 -35 -124l77 -76l-71 -71l-77 77 q-53 -33 -125 -33t-125 33l-79 -80l-71 71l79 79q-34 55 -34 124z" unicode="¤"/>
<glyph glyph-name="yen" d="M66 292v93h118l-173 315h140l151 -293l150 293h133l-176 -315h121v-93h-172v-82h172v-93h-172v-117h-122v117h-170v93h170v82h-170z" unicode="¥"/>
<glyph glyph-name="brokenbar" horiz-adv-x="340" unicode="¦" d="M112 260h115v-260h-115v260zM227 440h-115v260h115v-260z"/>
<glyph glyph-name="section" horiz-adv-x="524" unicode="§" d="M172 249q0 -34 24 -60t66 -26q43 0 66 25.5t23 60.5q0 34 -23.5 60t-65.5 26q-41 0 -65.5 -26t-24.5 -60zM57 249q0 60 32 106.5t90 66.5q-72 46 -72 135q0 60 45.5 101.5t125.5 41.5q90 0 144 -70l-69 -77q-35 39 -71 39q-24 0 -42 -17t-18 -41q0 -59 72 -101 q82 -9 127 -60t45 -124q0 -61 -31.5 -107t-89.5 -66q69 -47 69 -133q0 -61 -45 -102t-126 -41q-89 0 -143 70l69 77q36 -40 70 -40q25 0 42.5 17.5t17.5 41.5q0 59 -71 99q-81 9 -126 60t-45 124z"/>
<glyph glyph-name="dieresis" horiz-adv-x="443" unicode="¨" d="M259 599q0 29 18.5 46.5t45.5 17.5q24 0 42 -17.5t18 -46.5q0 -31 -17.5 -49t-42.5 -18q-27 0 -45.5 18t-18.5 49zM60 599q0 29 19 46.5t46 17.5q24 0 42 -17.5t18 -46.5q0 -31 -18 -49t-42 -18q-27 0 -46 18t-19 49z"/>
<glyph glyph-name="copyright" horiz-adv-x="1018" unicode="©" d="M641 151l54 -84q-28 -38 -75.5 -58t-103.5 -20q-110 0 -177 65t-67 171q0 100 66 168t167 68q120 0 181 -61l-54 -91q-45 44 -112 44q-50 0 -87.5 -35.5t-37.5 -92.5q0 -58 38.5 -93.5t91.5 -35.5q66 0 116 55zM172 220q0 -140 96.5 -238t241.5 -98q143 0 239 98t96 238 q0 141 -96 239t-239 98q-145 0 -241.5 -98t-96.5 -239zM72 221q0 183 126 309.5t311 126.5t310.5 -126t125.5 -310t-125.5 -310.5t-310.5 -126.5t-311 126.5t-126 310.5z"/>
<glyph glyph-name="ordfeminine" horiz-adv-x="445" unicode="ª" d="M207 387q35 0 73 25v31q-37 14 -71 14q-57 0 -57 -35t55 -35zM121 553l-40 67q62 38 146 38q64 0 108.5 -35t44.5 -101v-215h-100v43q-41 -48 -124 -48q-50 0 -80.5 31.5t-30.5 77.5q0 56 34 86t95 30q62 0 106 -21q-4 67 -73 67q-51 0 -86 -20z"/>
<glyph glyph-name="guillemotleft" horiz-adv-x="561" unicode="«" d="M230 22l-193 226v4l197 226l75 -67l-139 -161l138 -163zM440 22l-193 226v4l197 226l75 -67l-139 -161l138 -163z"/>
<glyph glyph-name="logicalnot" d="M51 310v100h494v-231h-100v131h-394z" unicode="¬"/>
<glyph glyph-name="uni00AD" horiz-adv-x="376" unicode="­" d="M62 220v107h252v-107h-252z"/>
<glyph glyph-name="registered" horiz-adv-x="663" unicode="®" d="M327 585h-29v-82h29q22 0 34.5 12.5t12.5 30.5q0 39 -47 39zM298 360h-77v280h117q58 0 86 -25t28 -68q0 -29 -15.5 -51t-37.5 -30l58 -106h-89l-43 88h-27v-88zM137 496q0 -80 57 -137t137 -57t137 57t57 137t-57 137t-137 57t-137 -57t-57 -137zM45 497q0 119 83.5 202 t204.5 83q118 0 201.5 -83.5t83.5 -201.5q0 -120 -83.5 -204t-201.5 -84q-121 0 -204.5 83.5t-83.5 204.5z"/>
<glyph glyph-name="macron" horiz-adv-x="399" unicode="¯" d="M60 550v92h279v-92h-279z"/>
<glyph glyph-name="degree" horiz-adv-x="425" unicode="°" d="M145 570q0 -28 20 -48t47 -20q28 0 48 20t20 48t-20 47.5t-48 19.5q-27 0 -47 -19.5t-20 -47.5zM45 568q0 72 48.5 120.5t117.5 48.5q71 0 120 -46t49 -117t-49.5 -121.5t-119.5 -50.5q-69 0 -117.5 48t-48.5 118z"/>
<glyph glyph-name="plusminus" d="M66 155v100h464v-100h-464zM66 402v100h177v181h108v-181h179v-100h-179v-103h-108v103h-177z" unicode="±"/>
<glyph glyph-name="twosuperior" horiz-adv-x="363" unicode="²" d="M30 350v73q118 70 152 104q30 29 30 53q0 18 -11.5 28.5t-31.5 10.5t-35.5 -15.5t-18.5 -34.5l-83 29q8 49 47 77.5t100 28.5q67 0 103.5 -30.5t36.5 -80.5q0 -92 -159 -158h175v-85h-305z"/>
<glyph glyph-name="threesuperior" horiz-adv-x="361" unicode="³" d="M175 344q-52 0 -95 19t-63 55l58 53q10 -19 34 -32.5t49 -13.5q61 0 61 35q0 32 -59 32h-30v70h28q22 0 35 9.5t13 24.5q0 29 -45 29q-52 0 -85 -41l-48 55q44 67 153 67q59 0 96 -24t37 -65q0 -32 -20.5 -53t-56.5 -29v-1q43 -3 66 -26t23 -57q0 -48 -44 -77.5 t-107 -29.5z"/>
<glyph glyph-name="acute" horiz-adv-x="315" unicode="´" d="M255 662l-126 -145l-69 48l105 165z"/>
<glyph glyph-name="mu" horiz-adv-x="542" unicode="µ" d="M478 450v-450h-115v55q-54 -66 -144 -66q-21 0 -43 5v-194h-115v650h115v-260q3 -94 86 -94q59 0 101 55v299h115z"/>
<glyph glyph-name="mu" horiz-adv-x="542" unicode="μ" d="M478 450v-450h-115v55q-54 -66 -144 -66q-21 0 -43 5v-194h-115v650h115v-260q3 -94 86 -94q59 0 101 55v299h115z"/>
<glyph glyph-name="paragraph" horiz-adv-x="491" unicode="¶" d="M37 481q0 100 62.5 159.5t159.5 59.5h207v-108h-94v-584q0 -216 -187 -216q-38 0 -74 14.5t-56 34.5l45 83q33 -25 77 -25q80 0 80 113v251q-90 1 -155 60t-65 158z"/>
<glyph glyph-name="periodcentered" horiz-adv-x="212" unicode="·" d="M29 302q0 28 22 51t58 23q31 0 52 -23t21 -51q0 -32 -21 -56t-52 -24q-36 0 -58 24t-22 56z"/>
<glyph glyph-name="cedilla" horiz-adv-x="378" unicode="¸" d="M60 -166l34 54q33 -26 70 -26q39 0 39 25q0 28 -41 28h-6v85h58v-35q104 -6 104 -85q0 -40 -36 -64t-102 -24q-63 0 -120 42z"/>
<glyph glyph-name="onesuperior" horiz-adv-x="269" unicode="¹" d="M16 624l113 75h72v-349h-100v234l-48 -28z"/>
<glyph glyph-name="ordmasculine" horiz-adv-x="499" unicode="º" d="M160 480q0 -39 25.5 -62.5t63.5 -23.5q40 0 65 23.5t25 62.5q0 38 -25.5 61.5t-64.5 23.5q-38 0 -63.5 -23.5t-25.5 -61.5zM52 480q0 80 55.5 129t141.5 49t141.5 -49t55.5 -129t-55.5 -129.5t-141.5 -49.5t-141.5 49.5t-55.5 129.5z"/>
<glyph glyph-name="guillemotright" horiz-adv-x="561" unicode="»" d="M314 248l-193 -226l-78 65l138 163l-139 161l75 67l197 -226v-4zM524 248l-193 -226l-78 65l138 163l-139 161l75 67l197 -226v-4z"/>
<glyph glyph-name="onequarter" horiz-adv-x="693" unicode="¼" d="M525 0v70h-193v67l155 213h95l-148 -202h91v77h92v-77h56v-78h-56v-70h-92zM45 35l505 676l65 -49l-504 -673zM21 624l113 75h72v-349h-100v234l-48 -28z"/>
<glyph glyph-name="onehalf" horiz-adv-x="710" unicode="½" d="M365 0v73q118 70 152 104q30 29 30 53q0 18 -11.5 28.5t-31.5 10.5t-35.5 -15.5t-18.5 -34.5l-83 29q8 49 47 77.5t100 28.5q67 0 103.5 -30.5t36.5 -80.5q0 -92 -159 -158h175v-85h-305zM35 35l505 676l65 -49l-504 -673zM21 624l113 75h72v-349h-100v234l-48 -28z"/>
<glyph glyph-name="threequarters" horiz-adv-x="753" unicode="¾" d="M182 344q-52 0 -95 19t-63 55l58 53q10 -19 34 -32.5t49 -13.5q61 0 61 35q0 32 -59 32h-30v70h28q22 0 35 9.5t13 24.5q0 29 -45 29q-52 0 -85 -41l-48 55q44 67 153 67q59 0 96 -24t37 -65q0 -32 -20.5 -53t-56.5 -29v-1q43 -3 66 -26t23 -57q0 -48 -44 -77.5 t-107 -29.5zM585 0v70h-193v67l155 213h95l-148 -202h91v77h92v-77h56v-78h-56v-70h-92zM115 35l505 676l65 -49l-504 -673z"/>
<glyph glyph-name="questiondown" horiz-adv-x="473" unicode="¿" d="M333 381q0 -28 -22 -51t-57 -23q-32 0 -53 23t-21 51q0 32 21 56t53 24q35 0 57 -24t22 -56zM148 -54q0 -36 27 -61t67 -25q74 0 123 64l68 -77q-28 -45 -80.5 -73.5t-117.5 -28.5q-97 0 -153.5 50.5t-56.5 125.5q0 52 19 91.5t45.5 63.5t53.5 44.5t46 45.5t19 54 q0 6 -2 18l105 1q3 -18 3 -34q0 -39 -17 -68.5t-41.5 -48.5t-49 -37.5t-41.5 -44.5t-17 -60z"/>
<glyph glyph-name="Agrave" horiz-adv-x="715" unicode="À" d="M410 731l-225 81l43 99l214 -111zM354 543l-103 -249h205zM7 0l296 702h108l296 -702h-131l-73 179h-299l-73 -179h-124z"/>
<glyph glyph-name="Aacute" horiz-adv-x="715" unicode="Á" d="M529 812l-225 -81l-32 69l214 111zM354 543l-103 -249h205zM7 0l296 702h108l296 -702h-131l-73 179h-299l-73 -179h-124z"/>
<glyph glyph-name="Acircumflex" horiz-adv-x="715" unicode="Â" d="M178 792l175 112h4l179 -111l-45 -65l-136 71l-136 -71zM354 543l-103 -249h205zM7 0l296 702h108l296 -702h-131l-73 179h-299l-73 -179h-124z"/>
<glyph glyph-name="Atilde" horiz-adv-x="715" unicode="Ã" d="M212 753l-36 73q47 54 112 54q31 0 74 -17.5t69 -17.5q46 0 76 32l31 -73q-41 -59 -115 -59q-25 0 -70.5 17.5t-74.5 17.5q-33 0 -66 -27zM354 543l-103 -249h205zM7 0l296 702h108l296 -702h-131l-73 179h-299l-73 -179h-124z"/>
<glyph glyph-name="Adieresis" horiz-adv-x="715" unicode="Ä" d="M399 825q0 28 22 45t55 17q29 0 50 -17t21 -45q0 -31 -21 -48.5t-50 -17.5q-33 0 -55 17.5t-22 48.5zM167 825q0 28 22 45t55 17q29 0 50 -17t21 -45q0 -31 -21 -48.5t-50 -17.5q-33 0 -55 17.5t-22 48.5zM354 543l-103 -249h205zM7 0l296 702h108l296 -702h-131l-73 179 h-299l-73 -179h-124z"/>
<glyph glyph-name="Aring" horiz-adv-x="715" unicode="Å" d="M301 800q0 -23 15.5 -35t39.5 -12q25 0 41 12t16 35q0 45 -57 45q-55 0 -55 -45zM354 543l-103 -249h205zM216 800q0 54 39 81t100 27q63 0 103 -27t40 -81q0 -79 -85 -103l294 -697h-131l-73 179h-299l-73 -179h-124l294 697q-85 24 -85 103z"/>
<glyph glyph-name="AE" horiz-adv-x="951" unicode="Æ" d="M473 514l-152 -218h152v218zM473 0v181h-233l-126 -181h-142l503 700h403v-115h-282v-174h252v-115h-252v-181h292v-115h-415z"/>
<glyph glyph-name="Ccedilla" horiz-adv-x="655" unicode="Ç" d="M254 -163l37 58q40 -33 74 -33q39 0 39 25q0 28 -41 28h-6v77q-141 15 -226.5 111.5t-85.5 246.5q0 157 95 259t263 102q135 0 213 -71l-55 -91q-71 47 -158 47q-99 0 -163.5 -67t-64.5 -179q0 -109 67.5 -177.5t174.5 -68.5q93 0 166 56l47 -92q-32 -35 -90.5 -56.5 t-124.5 -22.5v-24q111 -6 111 -85q0 -39 -35.5 -63.5t-97.5 -24.5q-81 0 -139 45z"/>
<glyph glyph-name="Egrave" horiz-adv-x="575" unicode="È" d="M362 731l-225 81l43 99l214 -111zM97 0v700h405v-115h-282v-174h252v-115h-252v-181h292v-115h-415z"/>
<glyph glyph-name="Eacute" horiz-adv-x="575" unicode="É" d="M474 812l-225 -81l-32 69l214 111zM97 0v700h405v-115h-282v-174h252v-115h-252v-181h292v-115h-415z"/>
<glyph glyph-name="Ecircumflex" horiz-adv-x="575" unicode="Ê" d="M121 792l175 112h4l179 -111l-45 -65l-136 71l-136 -71zM97 0v700h405v-115h-282v-174h252v-115h-252v-181h292v-115h-415z"/>
<glyph glyph-name="Edieresis" horiz-adv-x="575" unicode="Ë" d="M345 825q0 28 22 45t55 17q29 0 50 -17t21 -45q0 -31 -21 -48.5t-50 -17.5q-33 0 -55 17.5t-22 48.5zM113 825q0 28 22 45t55 17q29 0 50 -17t21 -45q0 -31 -21 -48.5t-50 -17.5q-33 0 -55 17.5t-22 48.5zM97 0v700h405v-115h-282v-174h252v-115h-252v-181h292v-115h-415 z"/>
<glyph glyph-name="Igrave" horiz-adv-x="347" unicode="Ì" d="M217 731l-225 81l43 99l214 -111zM112 0v700h123v-700h-123z"/>
<glyph glyph-name="Iacute" horiz-adv-x="347" unicode="Í" d="M357 812l-225 -81l-32 69l214 111zM112 0v700h123v-700h-123z"/>
<glyph glyph-name="Icircumflex" horiz-adv-x="347" unicode="Î" d="M-6 792l175 112h4l179 -111l-45 -65l-136 71l-136 -71zM112 0v700h123v-700h-123z"/>
<glyph glyph-name="Idieresis" horiz-adv-x="347" unicode="Ï" d="M215 825q0 28 22 45t55 17q29 0 50 -17t21 -45q0 -31 -21 -48.5t-50 -17.5q-33 0 -55 17.5t-22 48.5zM-17 825q0 28 22 45t55 17q29 0 50 -17t21 -45q0 -31 -21 -48.5t-50 -17.5q-33 0 -55 17.5t-22 48.5zM112 0v700h123v-700h-123z"/>
<glyph glyph-name="Eth" horiz-adv-x="749" unicode="Ð" d="M309 588q-40 0 -82 -3v-180h177v-108h-177v-182q34 -2 80 -2q125 0 196 66t71 178q0 107 -70.5 169t-194.5 62zM10 297v108h95v295h13q20 0 93 1.5t100 1.5q102 0 179 -27.5t123 -76.5t68.5 -109.5t22.5 -132.5q0 -156 -104.5 -257.5t-296.5 -101.5q-18 0 -84 1t-100 1 h-14v297h-95z"/>
<glyph glyph-name="Ntilde" horiz-adv-x="792" unicode="Ñ" d="M258 753l-36 73q47 54 112 54q31 0 74 -17.5t69 -17.5q46 0 76 32l31 -73q-41 -59 -115 -59q-25 0 -70.5 17.5t-74.5 17.5q-33 0 -66 -27zM695 0h-98l-385 485v-485h-115v700h98l385 -487v487h115v-700z"/>
<glyph glyph-name="Ograve" horiz-adv-x="819" unicode="Ò" d="M482 731l-225 81l43 99l214 -111zM175 350q0 -105 67.5 -175.5t166.5 -70.5q108 0 171.5 70t63.5 176q0 108 -67.5 177t-167.5 69q-101 0 -167.5 -69t-66.5 -177zM45 350q0 154 102.5 257.5t261.5 103.5q158 0 261.5 -100t103.5 -261q0 -157 -104 -259t-261 -102 q-158 0 -261 100t-103 261z"/>
<glyph glyph-name="Oacute" horiz-adv-x="819" unicode="Ó" d="M589 812l-225 -81l-32 69l214 111zM175 350q0 -105 67.5 -175.5t166.5 -70.5q108 0 171.5 70t63.5 176q0 108 -67.5 177t-167.5 69q-101 0 -167.5 -69t-66.5 -177zM45 350q0 154 102.5 257.5t261.5 103.5q158 0 261.5 -100t103.5 -261q0 -157 -104 -259t-261 -102 q-158 0 -261 100t-103 261z"/>
<glyph glyph-name="Ocircumflex" horiz-adv-x="819" unicode="Ô" d="M233 792l175 112h4l179 -111l-45 -65l-136 71l-136 -71zM175 350q0 -105 67.5 -175.5t166.5 -70.5q108 0 171.5 70t63.5 176q0 108 -67.5 177t-167.5 69q-101 0 -167.5 -69t-66.5 -177zM45 350q0 154 102.5 257.5t261.5 103.5q158 0 261.5 -100t103.5 -261 q0 -157 -104 -259t-261 -102q-158 0 -261 100t-103 261z"/>
<glyph glyph-name="Otilde" horiz-adv-x="819" unicode="Õ" d="M260 753l-36 73q47 54 112 54q31 0 74 -17.5t69 -17.5q46 0 76 32l31 -73q-41 -59 -115 -59q-25 0 -70.5 17.5t-74.5 17.5q-33 0 -66 -27zM175 350q0 -105 67.5 -175.5t166.5 -70.5q108 0 171.5 70t63.5 176q0 108 -67.5 177t-167.5 69q-101 0 -167.5 -69t-66.5 -177z M45 350q0 154 102.5 257.5t261.5 103.5q158 0 261.5 -100t103.5 -261q0 -157 -104 -259t-261 -102q-158 0 -261 100t-103 261z"/>
<glyph glyph-name="Odieresis" horiz-adv-x="819" unicode="Ö" d="M448 825q0 28 22 45t55 17q29 0 50 -17t21 -45q0 -31 -21 -48.5t-50 -17.5q-33 0 -55 17.5t-22 48.5zM216 825q0 28 22 45t55 17q29 0 50 -17t21 -45q0 -31 -21 -48.5t-50 -17.5q-33 0 -55 17.5t-22 48.5zM175 350q0 -105 67.5 -175.5t166.5 -70.5q108 0 171.5 70 t63.5 176q0 108 -67.5 177t-167.5 69q-101 0 -167.5 -69t-66.5 -177zM45 350q0 154 102.5 257.5t261.5 103.5q158 0 261.5 -100t103.5 -261q0 -157 -104 -259t-261 -102q-158 0 -261 100t-103 261z"/>
<glyph glyph-name="multiply" d="M99 488l71 71l128 -128l128 128l71 -71l-128 -128l129 -129l-71 -71l-129 129l-129 -129l-71 71l129 129z" unicode="×"/>
<glyph glyph-name="Oslash" horiz-adv-x="819" unicode="Ø" d="M175 350q0 -68 29 -123l338 329q-61 40 -133 40q-101 0 -167.5 -69t-66.5 -177zM644 350q0 76 -37 137l-341 -333q61 -50 143 -50q108 0 171.5 70t63.5 176zM45 350q0 154 102.5 257.5t261.5 103.5q126 0 222 -68l40 39l66 -67l-38 -37q75 -96 75 -228q0 -157 -104 -259 t-261 -102q-138 0 -234 76l-42 -41l-67 68l43 42q-64 91 -64 216z"/>
<glyph glyph-name="Ugrave" horiz-adv-x="751" unicode="Ù" d="M435 731l-225 81l43 99l214 -111zM663 700v-410q0 -151 -79 -226t-199 -75q-135 0 -216.5 79.5t-81.5 228.5v403h123v-377q0 -102 43.5 -160.5t131.5 -58.5q156 0 156 211v385h122z"/>
<glyph glyph-name="Uacute" horiz-adv-x="751" unicode="Ú" d="M552 812l-225 -81l-32 69l214 111zM663 700v-410q0 -151 -79 -226t-199 -75q-135 0 -216.5 79.5t-81.5 228.5v403h123v-377q0 -102 43.5 -160.5t131.5 -58.5q156 0 156 211v385h122z"/>
<glyph glyph-name="Ucircumflex" horiz-adv-x="751" unicode="Û" d="M195 792l175 112h4l179 -111l-45 -65l-136 71l-136 -71zM663 700v-410q0 -151 -79 -226t-199 -75q-135 0 -216.5 79.5t-81.5 228.5v403h123v-377q0 -102 43.5 -160.5t131.5 -58.5q156 0 156 211v385h122z"/>
<glyph glyph-name="Udieresis" horiz-adv-x="751" unicode="Ü" d="M410 825q0 28 22 45t55 17q29 0 50 -17t21 -45q0 -31 -21 -48.5t-50 -17.5q-33 0 -55 17.5t-22 48.5zM178 825q0 28 22 45t55 17q29 0 50 -17t21 -45q0 -31 -21 -48.5t-50 -17.5q-33 0 -55 17.5t-22 48.5zM663 700v-410q0 -151 -79 -226t-199 -75q-135 0 -216.5 79.5 t-81.5 228.5v403h123v-377q0 -102 43.5 -160.5t131.5 -58.5q156 0 156 211v385h122z"/>
<glyph glyph-name="Yacute" horiz-adv-x="629" unicode="Ý" d="M492 812l-225 -81l-32 69l214 111zM624 700l-249 -408v-292h-123v292l-247 408h140l174 -293l172 293h133z"/>
<glyph glyph-name="Thorn" horiz-adv-x="612" unicode="Þ" d="M298 484q-50 0 -78 -3v-214q48 -5 87 -5q58 0 94 29t36 85q0 108 -139 108zM220 0h-123v700h123v-103q8 0 38 1t38 1q143 0 207 -63.5t64 -160.5q0 -95 -68 -161.5t-188 -66.5q-51 0 -91 4v-151z"/>
<glyph glyph-name="germandbls" horiz-adv-x="551" unicode="ß" d="M398 160q0 30 -25.5 56t-56 43.5t-56 48t-25.5 68.5q0 35 13 62.5t28 42t28 33t13 37.5q0 22 -18.5 37t-46.5 15q-39 0 -57 -27t-18 -86v-491h-115v501q0 211 207 211q73 0 121.5 -40t48.5 -98q0 -28 -8.5 -49.5t-20.5 -35t-23.5 -26t-20 -28.5t-8.5 -35q0 -26 17 -46.5 t41 -36t47.5 -34t40.5 -50.5t17 -75q0 -70 -45 -119t-114 -49q-94 0 -146 59l37 88q40 -40 81 -40q28 0 46 17t18 47z"/>
<glyph glyph-name="agrave" horiz-adv-x="463" unicode="à" d="M248 517l-127 143l91 68l104 -163zM214 91q58 0 87 41v46q-29 22 -79 22q-31 0 -51.5 -14.5t-20.5 -41.5q0 -25 18 -39t46 -14zM99 334l-29 84q73 43 159 43q96 0 138 -47t42 -140v-274h-100v52q-41 -58 -133 -58q-63 0 -102 37t-39 101q0 71 46 108.5t118 37.5 q62 0 102 -29v14q0 52 -19 77t-65 25q-50 0 -118 -31z"/>
<glyph glyph-name="aacute" horiz-adv-x="463" unicode="á" d="M350 662l-126 -145l-69 48l105 165zM214 91q58 0 87 41v46q-29 22 -79 22q-31 0 -51.5 -14.5t-20.5 -41.5q0 -25 18 -39t46 -14zM99 334l-29 84q73 43 159 43q96 0 138 -47t42 -140v-274h-100v52q-41 -58 -133 -58q-63 0 -102 37t-39 101q0 71 46 108.5t118 37.5 q62 0 102 -29v14q0 52 -19 77t-65 25q-50 0 -118 -31z"/>
<glyph glyph-name="acircumflex" horiz-adv-x="463" unicode="â" d="M233 706l152 -134l-54 -68l-101 81l-102 -79l-52 67l153 133h4zM214 91q58 0 87 41v46q-29 22 -79 22q-31 0 -51.5 -14.5t-20.5 -41.5q0 -25 18 -39t46 -14zM99 334l-29 84q73 43 159 43q96 0 138 -47t42 -140v-274h-100v52q-41 -58 -133 -58q-63 0 -102 37t-39 101 q0 71 46 108.5t118 37.5q62 0 102 -29v14q0 52 -19 77t-65 25q-50 0 -118 -31z"/>
<glyph glyph-name="atilde" horiz-adv-x="463" unicode="ã" d="M102 538l-47 52q55 69 121 69q24 0 59.5 -21t55.5 -21q14 0 26 4.5t19 9t24 17.5l39 -58q-59 -65 -117 -65q-22 0 -58 20.5t-59 20.5t-63 -28zM214 91q58 0 87 41v46q-29 22 -79 22q-31 0 -51.5 -14.5t-20.5 -41.5q0 -25 18 -39t46 -14zM99 334l-29 84q73 43 159 43 q96 0 138 -47t42 -140v-274h-100v52q-41 -58 -133 -58q-63 0 -102 37t-39 101q0 71 46 108.5t118 37.5q62 0 102 -29v14q0 52 -19 77t-65 25q-50 0 -118 -31z"/>
<glyph glyph-name="adieresis" horiz-adv-x="463" unicode="ä" d="M273 599q0 29 18.5 46.5t45.5 17.5q24 0 42 -17.5t18 -46.5q0 -31 -17.5 -49t-42.5 -18q-27 0 -45.5 18t-18.5 49zM74 599q0 29 19 46.5t46 17.5q24 0 42 -17.5t18 -46.5q0 -31 -18 -49t-42 -18q-27 0 -46 18t-19 49zM214 91q58 0 87 41v46q-29 22 -79 22 q-31 0 -51.5 -14.5t-20.5 -41.5q0 -25 18 -39t46 -14zM99 334l-29 84q73 43 159 43q96 0 138 -47t42 -140v-274h-100v52q-41 -58 -133 -58q-63 0 -102 37t-39 101q0 71 46 108.5t118 37.5q62 0 102 -29v14q0 52 -19 77t-65 25q-50 0 -118 -31z"/>
<glyph glyph-name="aring" horiz-adv-x="463" unicode="å" d="M185 613q0 -24 15 -40.5t39 -16.5q23 0 37.5 16.5t14.5 40.5t-14.5 40t-37.5 16q-24 0 -39 -16t-15 -40zM111 612q0 50 36 85t90 35q55 0 91.5 -35t36.5 -85q0 -49 -36.5 -83.5t-91.5 -34.5q-54 0 -90 34.5t-36 83.5zM214 91q58 0 87 41v46q-29 22 -79 22 q-31 0 -51.5 -14.5t-20.5 -41.5q0 -25 18 -39t46 -14zM99 334l-29 84q73 43 159 43q96 0 138 -47t42 -140v-274h-100v52q-41 -58 -133 -58q-63 0 -102 37t-39 101q0 71 46 108.5t118 37.5q62 0 102 -29v14q0 52 -19 77t-65 25q-50 0 -118 -31z"/>
<glyph glyph-name="ae" horiz-adv-x="759" unicode="æ" d="M214 91q46 0 86 38l1 57q-36 14 -79 14q-31 0 -51.5 -15.5t-20.5 -40.5q0 -23 17 -38t47 -15zM409 274v-7h206q-2 44 -29.5 71t-77.5 27q-68 0 -101 -57q2 -22 2 -34zM229 461q93 0 138 -47q63 47 150 47q89 0 151 -58.5t62 -150.5q0 -32 -7 -62h-314v-43 q14 -28 46.5 -45t76.5 -17q75 0 128 41l32 -81q-70 -56 -169 -56q-108 0 -173 59q-72 -57 -154 -57q-78 0 -119.5 38.5t-41.5 108.5q0 64 45.5 102t118.5 38q25 0 56.5 -7t45.5 -15q1 6 1 18q0 43 -21.5 67t-58.5 24q-55 0 -123 -31l-29 84q76 43 159 43z"/>
<glyph glyph-name="ccedilla" horiz-adv-x="487" unicode="ç" d="M139 -166l34 54q33 -26 70 -26q39 0 39 25q0 28 -41 28h-6v78q-91 13 -145 75t-54 157q0 100 66 168t167 68q120 0 181 -61l-54 -91q-45 44 -112 44q-50 0 -87.5 -35.5t-37.5 -92.5q0 -58 38.5 -93.5t91.5 -35.5q66 0 116 55l54 -84q-55 -73 -166 -78v-24q104 -6 104 -85 q0 -40 -36 -64t-102 -24q-63 0 -120 42z"/>
<glyph glyph-name="egrave" horiz-adv-x="516" unicode="è" d="M288 517l-127 143l91 68l104 -163zM269 365q-98 0 -118 -98h221q1 42 -27 70t-76 28zM417 126l33 -81q-66 -56 -172 -56q-109 0 -175.5 65t-66.5 171q0 101 65 168.5t173 67.5q89 0 151 -58.5t62 -150.5q0 -38 -7 -62h-325q7 -50 44 -77.5t91 -27.5q76 0 127 41z"/>
<glyph glyph-name="eacute" horiz-adv-x="516" unicode="é" d="M400 662l-126 -145l-69 48l105 165zM269 365q-98 0 -118 -98h221q1 42 -27 70t-76 28zM417 126l33 -81q-66 -56 -172 -56q-109 0 -175.5 65t-66.5 171q0 101 65 168.5t173 67.5q89 0 151 -58.5t62 -150.5q0 -38 -7 -62h-325q7 -50 44 -77.5t91 -27.5q76 0 127 41z"/>
<glyph glyph-name="ecircumflex" horiz-adv-x="516" unicode="ê" d="M271 706l152 -134l-54 -68l-101 81l-102 -79l-52 67l153 133h4zM269 365q-98 0 -118 -98h221q1 42 -27 70t-76 28zM417 126l33 -81q-66 -56 -172 -56q-109 0 -175.5 65t-66.5 171q0 101 65 168.5t173 67.5q89 0 151 -58.5t62 -150.5q0 -38 -7 -62h-325q7 -50 44 -77.5 t91 -27.5q76 0 127 41z"/>
<glyph glyph-name="edieresis" horiz-adv-x="516" unicode="ë" d="M306 599q0 29 18.5 46.5t45.5 17.5q24 0 42 -17.5t18 -46.5q0 -31 -17.5 -49t-42.5 -18q-27 0 -45.5 18t-18.5 49zM107 599q0 29 19 46.5t46 17.5q24 0 42 -17.5t18 -46.5q0 -31 -18 -49t-42 -18q-27 0 -46 18t-19 49zM269 365q-98 0 -118 -98h221q1 42 -27 70t-76 28z M417 126l33 -81q-66 -56 -172 -56q-109 0 -175.5 65t-66.5 171q0 101 65 168.5t173 67.5q89 0 151 -58.5t62 -150.5q0 -38 -7 -62h-325q7 -50 44 -77.5t91 -27.5q76 0 127 41z"/>
<glyph glyph-name="igrave" horiz-adv-x="277" unicode="ì" d="M123 517l-127 143l91 68l104 -163zM81 0v450h115v-450h-115z"/>
<glyph glyph-name="iacute" horiz-adv-x="277" unicode="í" d="M258 662l-126 -145l-69 48l105 165zM81 0v450h115v-450h-115z"/>
<glyph glyph-name="icircumflex" horiz-adv-x="277" unicode="î" d="M141 706l152 -134l-54 -68l-101 81l-102 -79l-52 67l153 133h4zM81 0v450h115v-450h-115z"/>
<glyph glyph-name="idieresis" horiz-adv-x="277" unicode="ï" d="M176 599q0 29 18.5 46.5t45.5 17.5q24 0 42 -17.5t18 -46.5q0 -31 -17.5 -49t-42.5 -18q-27 0 -45.5 18t-18.5 49zM-23 599q0 29 19 46.5t46 17.5q24 0 42 -17.5t18 -46.5q0 -31 -18 -49t-42 -18q-27 0 -46 18t-19 49zM81 0v450h115v-450h-115z"/>
<glyph glyph-name="eth" horiz-adv-x="562" unicode="ð" d="M159 225q0 -56 34.5 -92.5t87.5 -36.5q56 0 89.5 41.5t33.5 114.5v17q-11 37 -44 60.5t-79 23.5q-52 0 -87 -35.5t-35 -92.5zM189 493l-33 102l82 29q-42 39 -88 68l129 19q34 -20 67 -48l104 37l32 -102l-59 -21q49 -71 76 -154t27 -159q0 -129 -66 -202t-179 -73 q-110 0 -177.5 66.5t-67.5 169.5t67.5 169.5t177.5 66.5q62 0 95 -45q-20 64 -61 122z"/>
<glyph glyph-name="ntilde" horiz-adv-x="546" unicode="ñ" d="M146 538l-47 52q55 69 121 69q24 0 59.5 -21t55.5 -21q14 0 26 4.5t19 9t24 17.5l39 -58q-59 -65 -117 -65q-22 0 -58 20.5t-59 20.5t-63 -28zM64 0v450h115v-45q49 53 129 53q185 0 185 -194v-264h-115v244q0 106 -101 106q-55 0 -98 -43v-307h-115z"/>
<glyph glyph-name="ograve" horiz-adv-x="562" unicode="ò" d="M284 517l-127 143l91 68l104 -163zM159 225q0 -56 34.5 -92.5t87.5 -36.5q54 0 88.5 35.5t34.5 93.5q0 56 -35 92t-88 36q-52 0 -87 -35.5t-35 -92.5zM36 225q0 103 67.5 169.5t177.5 66.5t177.5 -66.5t67.5 -169.5t-67.5 -169.5t-177.5 -66.5t-177.5 66.5t-67.5 169.5z "/>
<glyph glyph-name="oacute" horiz-adv-x="562" unicode="ó" d="M406 662l-126 -145l-69 48l105 165zM159 225q0 -56 34.5 -92.5t87.5 -36.5q54 0 88.5 35.5t34.5 93.5q0 56 -35 92t-88 36q-52 0 -87 -35.5t-35 -92.5zM36 225q0 103 67.5 169.5t177.5 66.5t177.5 -66.5t67.5 -169.5t-67.5 -169.5t-177.5 -66.5t-177.5 66.5t-67.5 169.5z "/>
<glyph glyph-name="ocircumflex" horiz-adv-x="562" unicode="ô" d="M285 706l152 -134l-54 -68l-101 81l-102 -79l-52 67l153 133h4zM159 225q0 -56 34.5 -92.5t87.5 -36.5q54 0 88.5 35.5t34.5 93.5q0 56 -35 92t-88 36q-52 0 -87 -35.5t-35 -92.5zM36 225q0 103 67.5 169.5t177.5 66.5t177.5 -66.5t67.5 -169.5t-67.5 -169.5 t-177.5 -66.5t-177.5 66.5t-67.5 169.5z"/>
<glyph glyph-name="otilde" horiz-adv-x="562" unicode="õ" d="M154 538l-47 52q55 69 121 69q24 0 59.5 -21t55.5 -21q14 0 26 4.5t19 9t24 17.5l39 -58q-59 -65 -117 -65q-22 0 -58 20.5t-59 20.5t-63 -28zM159 225q0 -56 34.5 -92.5t87.5 -36.5q54 0 88.5 35.5t34.5 93.5q0 56 -35 92t-88 36q-52 0 -87 -35.5t-35 -92.5zM36 225 q0 103 67.5 169.5t177.5 66.5t177.5 -66.5t67.5 -169.5t-67.5 -169.5t-177.5 -66.5t-177.5 66.5t-67.5 169.5z"/>
<glyph glyph-name="odieresis" horiz-adv-x="562" unicode="ö" d="M325 599q0 29 18.5 46.5t45.5 17.5q24 0 42 -17.5t18 -46.5q0 -31 -17.5 -49t-42.5 -18q-27 0 -45.5 18t-18.5 49zM126 599q0 29 19 46.5t46 17.5q24 0 42 -17.5t18 -46.5q0 -31 -18 -49t-42 -18q-27 0 -46 18t-19 49zM159 225q0 -56 34.5 -92.5t87.5 -36.5 q54 0 88.5 35.5t34.5 93.5q0 56 -35 92t-88 36q-52 0 -87 -35.5t-35 -92.5zM36 225q0 103 67.5 169.5t177.5 66.5t177.5 -66.5t67.5 -169.5t-67.5 -169.5t-177.5 -66.5t-177.5 66.5t-67.5 169.5z"/>
<glyph glyph-name="divide" d="M66 310v100h464v-100h-464zM230 164q0 25 18.5 45.5t49.5 20.5q29 0 48 -20.5t19 -45.5q0 -28 -18.5 -49t-48.5 -21q-31 0 -49.5 20.5t-18.5 49.5zM230 557q0 26 18.5 45.5t49.5 19.5q30 0 48.5 -19.5t18.5 -45.5q0 -28 -18.5 -49t-48.5 -21q-31 0 -49.5 21t-18.5 49z " unicode="÷"/>
<glyph glyph-name="oslash" horiz-adv-x="577" unicode="ø" d="M159 225q0 -35 14 -63l188 172q-32 19 -72 19q-58 0 -94 -35t-36 -93zM419 225q0 36 -15 63l-188 -173q32 -19 73 -19q59 0 94.5 35.5t35.5 93.5zM49 49l35 32q-48 60 -48 144q0 102 71 169t182 67q91 0 158 -48l39 36l41 -48l-35 -32q49 -62 49 -144q0 -102 -70.5 -169 t-181.5 -67q-93 0 -159 47l-39 -36z"/>
<glyph glyph-name="ugrave" horiz-adv-x="535" unicode="ù" d="M266 517l-127 143l91 68l104 -163zM471 450v-450h-115v55q-54 -66 -144 -66q-70 0 -114 47t-44 139v275h115v-251q0 -103 86 -103q59 0 101 55v299h115z"/>
<glyph glyph-name="uacute" horiz-adv-x="535" unicode="ú" d="M396 662l-126 -145l-69 48l105 165zM471 450v-450h-115v55q-54 -66 -144 -66q-70 0 -114 47t-44 139v275h115v-251q0 -103 86 -103q59 0 101 55v299h115z"/>
<glyph glyph-name="ucircumflex" horiz-adv-x="535" unicode="û" d="M269 706l152 -134l-54 -68l-101 81l-102 -79l-52 67l153 133h4zM471 450v-450h-115v55q-54 -66 -144 -66q-70 0 -114 47t-44 139v275h115v-251q0 -103 86 -103q59 0 101 55v299h115z"/>
<glyph glyph-name="udieresis" horiz-adv-x="535" unicode="ü" d="M302 599q0 29 18.5 46.5t45.5 17.5q24 0 42 -17.5t18 -46.5q0 -31 -17.5 -49t-42.5 -18q-27 0 -45.5 18t-18.5 49zM103 599q0 29 19 46.5t46 17.5q24 0 42 -17.5t18 -46.5q0 -31 -18 -49t-42 -18q-27 0 -46 18t-19 49zM471 450v-450h-115v55q-54 -66 -144 -66 q-70 0 -114 47t-44 139v275h115v-251q0 -103 86 -103q59 0 101 55v299h115z"/>
<glyph glyph-name="yacute" horiz-adv-x="503" unicode="ý" d="M372 662l-126 -145l-69 48l105 165zM498 450l-177 -450q-48 -117 -85.5 -158.5t-88.5 -41.5q-49 0 -97 35l37 87q27 -16 47 -16q41 0 69 70l10 24l-208 450h138l105 -246q6 -15 22 -65q8 44 16 66l81 245h131z"/>
<glyph glyph-name="thorn" horiz-adv-x="558" unicode="þ" d="M282 353q-59 0 -103 -49v-182q40 -26 95 -26q58 0 92 37.5t34 95.5q0 55 -31 89.5t-87 34.5zM64 -200v900h115v-286q54 47 139 47q92 0 148 -64t56 -165q0 -105 -66 -174t-172 -69q-67 0 -105 22v-211h-115z"/>
<glyph glyph-name="OE" horiz-adv-x="1038" unicode="Œ" d="M417 104q79 0 143 40v405q-70 47 -157 47q-99 0 -163.5 -67t-64.5 -179q0 -109 67.5 -177.5t174.5 -68.5zM560 0v20q-72 -31 -154 -31q-161 0 -261 99t-100 262q0 157 95 259t263 102q87 0 157 -34v23h405v-115h-282v-174h252v-115h-252v-181h292v-115h-415z"/>
<glyph glyph-name="oe" horiz-adv-x="833" unicode="œ" d="M586 365q-98 0 -118 -98h221q1 42 -27 70t-76 28zM281 96q54 0 89 32q-17 45 -17 97q0 53 18 97q-38 31 -90 31t-87.5 -35.5t-35.5 -92.5q0 -56 35 -92.5t88 -36.5zM734 126l32 -81q-65 -56 -172 -56q-94 0 -156 48q-63 -48 -157 -48q-110 0 -177.5 66.5t-67.5 169.5 t67.5 169.5t177.5 66.5q93 0 157 -50q63 50 153 50q89 0 151 -58.5t62 -150.5q0 -38 -7 -62h-325q7 -50 43.5 -77.5t90.5 -27.5q77 0 128 41z"/>
<glyph glyph-name="Scaron" horiz-adv-x="553" unicode="Š" d="M279 735l-179 111l45 65l136 -79l135 79l41 -64l-174 -112h-4zM378 186q0 28 -17.5 49.5t-45.5 37t-61.5 30t-67.5 33t-62 41t-45.5 59t-17.5 82.5q0 82 59.5 137.5t158.5 55.5q132 0 200 -75l-66 -92q-54 52 -124 52q-45 0 -71.5 -21t-26.5 -56q0 -34 23.5 -59 t58.5 -39.5t76.5 -34.5t76.5 -41.5t58.5 -62t23.5 -95.5q0 -87 -67 -142.5t-167 -55.5q-72 0 -138.5 29.5t-90.5 80.5l70 84q29 -38 73.5 -58.5t87.5 -20.5q45 0 73.5 21.5t28.5 60.5z"/>
<glyph glyph-name="scaron" horiz-adv-x="444" unicode="š" d="M219 509l-152 134l54 68l101 -92l102 90l52 -67l-153 -133h-4zM292 127q0 20 -25 32.5t-61 22t-71.5 23t-60.5 43.5t-25 76q0 64 46.5 100.5t118.5 36.5q110 0 171 -57l-43 -82q-55 43 -122 43q-25 0 -40.5 -11.5t-15.5 -27.5q0 -17 18 -29.5t45 -18.5t58.5 -17t58.5 -24 t45 -40t18 -64q0 -66 -49.5 -105t-132.5 -39q-58 0 -114.5 25t-73.5 52l56 75q20 -22 63 -39t77 -17q26 0 42.5 11t16.5 31z"/>
<glyph glyph-name="Ydieresis" horiz-adv-x="629" unicode="Ÿ" d="M356 825q0 28 22 45t55 17q29 0 50 -17t21 -45q0 -31 -21 -48.5t-50 -17.5q-33 0 -55 17.5t-22 48.5zM124 825q0 28 22 45t55 17q29 0 50 -17t21 -45q0 -31 -21 -48.5t-50 -17.5q-33 0 -55 17.5t-22 48.5zM624 700l-249 -408v-292h-123v292l-247 408h140l174 -293 l172 293h133z"/>
<glyph glyph-name="circumflex" horiz-adv-x="429" unicode="ˆ" d="M217 706l152 -134l-54 -68l-101 81l-102 -79l-52 67l153 133h4z"/>
<glyph glyph-name="tilde" horiz-adv-x="464" unicode="˜" d="M107 538l-47 52q55 69 121 69q24 0 59.5 -21t55.5 -21q14 0 26 4.5t19 9t24 17.5l39 -58q-59 -65 -117 -65q-22 0 -58 20.5t-59 20.5t-63 -28z"/>
<glyph glyph-name="pi" horiz-adv-x="627" unicode="π" d="M42 342v108h534v-108h-77v-176q0 -68 33 -68q19 0 46 18l24 -88q-47 -38 -118 -38q-100 0 -100 129v223h-145v-45q0 -121 -24.5 -189t-66.5 -92.5t-113 -24.5l-10 112h6q88 0 93 177l1 62h-83z"/>
<glyph glyph-name="afii10023" horiz-adv-x="575" unicode="Ё" d="M351 825q0 28 22 45t55 17q29 0 50 -17t21 -45q0 -31 -21 -48.5t-50 -17.5q-33 0 -55 17.5t-22 48.5zM119 825q0 28 22 45t55 17q29 0 50 -17t21 -45q0 -31 -21 -48.5t-50 -17.5q-33 0 -55 17.5t-22 48.5zM97 0v700h405v-115h-282v-174h252v-115h-252v-181h292v-115h-415 z"/>
<glyph glyph-name="afii10051" horiz-adv-x="764" unicode="Ђ" d="M719 203q0 -107 -47.5 -160.5t-131.5 -53.5q-38 0 -72 13.5t-47 29.5l41 94q29 -22 62 -22q73 0 73 97q0 107 -111 107q-64 0 -126 -37v-271h-123v585h-227v115h577v-115h-227v-202q66 40 149 40q210 0 210 -220z"/>
<glyph glyph-name="afii10052" horiz-adv-x="507" unicode="Ѓ" d="M509 812l-225 -81l-32 69l214 111zM97 0v700h395v-115h-272v-585h-123z"/>
<glyph glyph-name="afii10053" horiz-adv-x="673" unicode="Є" d="M486 414v-115h-315q16 -95 86.5 -145t166.5 -50q98 0 177 61l45 -103q-38 -33 -99.5 -53t-132.5 -20q-169 0 -269 97t-100 264q0 160 98.5 260.5t253.5 100.5q151 0 241 -77l-55 -92q-72 54 -164 54q-99 0 -163.5 -48t-82.5 -134h313z"/>
<glyph glyph-name="afii10054" horiz-adv-x="553" unicode="Ѕ" d="M378 186q0 28 -17.5 49.5t-45.5 37t-61.5 30t-67.5 33t-62 41t-45.5 59t-17.5 82.5q0 82 59.5 137.5t158.5 55.5q132 0 200 -75l-66 -92q-54 52 -124 52q-45 0 -71.5 -21t-26.5 -56q0 -34 23.5 -59t58.5 -39.5t76.5 -34.5t76.5 -41.5t58.5 -62t23.5 -95.5 q0 -87 -67 -142.5t-167 -55.5q-72 0 -138.5 29.5t-90.5 80.5l70 84q29 -38 73.5 -58.5t87.5 -20.5q45 0 73.5 21.5t28.5 60.5z"/>
<glyph glyph-name="afii10055" horiz-adv-x="347" unicode="І" d="M112 0v700h123v-700h-123z"/>
<glyph glyph-name="afii10056" horiz-adv-x="347" unicode="Ї" d="M112 0v700h123v-700h-123zM193 825q0 28 19.5 45t47.5 17q25 0 43.5 -17.5t18.5 -44.5q0 -31 -18 -48.5t-44 -17.5q-29 0 -48 17.5t-19 48.5zM26 825q0 28 19 45t47 17q26 0 44.5 -17t18.5 -45q0 -31 -18.5 -48.5t-44.5 -17.5q-28 0 -47 17.5t-19 48.5z"/>
<glyph glyph-name="afii10057" horiz-adv-x="390" unicode="Ј" d="M293 700v-535q0 -85 -42.5 -130.5t-126.5 -45.5q-38 0 -71 13t-48 30l40 94q29 -22 62 -22q63 0 63 82v514h123z"/>
<glyph glyph-name="afii10058" horiz-adv-x="1011" unicode="Љ" d="M699 350q-22 0 -67 -5v-229q1 0 26 -1.5t39 -1.5q139 0 139 123q0 56 -36 85t-101 29zM510 0v585h-204l-14 -132q-18 -178 -51.5 -280.5t-75.5 -139t-103 -36.5q-19 0 -40 3l3 122q4 -1 13 -1q18 0 32.5 8t32 35t31 73t26.5 128.5t21 194.5l10 140h441v-240q39 5 77 5 q127 0 192 -60t65 -166q0 -113 -74.5 -177t-208.5 -64q-37 0 -96.5 1t-76.5 1z"/>
<glyph glyph-name="afii10059" horiz-adv-x="1032" unicode="Њ" d="M652 327v-211q3 0 27.5 -1.5t38.5 -1.5q139 0 139 114q0 51 -36 78t-101 27q-33 0 -68 -5zM97 0v700h123v-262h310v262h122v-257q43 4 78 4q127 0 192 -58t65 -159q0 -107 -75 -169.5t-208 -62.5q-37 0 -96.5 1t-76.5 1h-1v323h-310v-323h-123z"/>
<glyph glyph-name="afii10060" horiz-adv-x="765" unicode="Ћ" d="M10 585v115h577v-115h-227v-202q63 40 150 40q42 0 78 -12t66.5 -37t48 -69.5t17.5 -104.5v-200h-122v164q0 144 -120 144q-60 0 -118 -38v-270h-123v585h-227z"/>
<glyph glyph-name="afii10061" horiz-adv-x="672" unicode="Ќ" d="M554 812l-225 -81l-32 69l214 111zM97 0v700h123v-332l276 332h148l-288 -326l306 -374h-156l-286 361v-361h-123z"/>
<glyph glyph-name="afii10062" horiz-adv-x="683" unicode="Ў" d="M156 870h115q12 -58 85 -58q75 0 80 58h115q-2 -64 -57 -103.5t-138 -39.5q-89 0 -142 39t-58 104zM671 700l-238 -537q-37 -83 -82 -123t-108 -40q-61 0 -96 28l43 104q25 -17 52 -17q46 0 69 49l10 24l-309 512h139l229 -391l167 391h124z"/>
<glyph glyph-name="afii10145" horiz-adv-x="742" unicode="Џ" d="M97 0v700h123v-585h302v585h123v-700h-217v-153h-115v153h-216z"/>
<glyph glyph-name="afii10017" horiz-adv-x="715" unicode="А" d="M354 543l-103 -249h205zM7 0l296 702h108l296 -702h-131l-73 179h-299l-73 -179h-124z"/>
<glyph glyph-name="afii10018" horiz-adv-x="614" unicode="Б" d="M304 320q-38 0 -84 -6v-199q56 -4 78 -4q129 0 129 104q0 48 -30.5 76.5t-92.5 28.5zM97 0v700h409v-115h-286v-156q40 6 94 6q109 0 172 -57t63 -154q0 -109 -70.5 -168.5t-199.5 -59.5q-45 0 -106 2t-76 2z"/>
<glyph glyph-name="afii10019" horiz-adv-x="617" unicode="В" d="M297 588q-44 0 -77 -3v-177h83q46 0 75 23.5t29 69.5q0 42 -29.5 64.5t-80.5 22.5zM307 301h-87v-185q42 -5 81 -5q128 0 128 101q0 44 -32 66.5t-90 22.5zM97 1v697q98 5 202 5q119 0 174.5 -47.5t55.5 -125.5q0 -112 -100 -159v-2q55 -14 89 -55t34 -108 q0 -104 -71.5 -157t-188.5 -53q-127 0 -195 5z"/>
<glyph glyph-name="afii10020" horiz-adv-x="507" unicode="Г" d="M97 0v700h395v-115h-272v-585h-123z"/>
<glyph glyph-name="afii10021" horiz-adv-x="756" unicode="Д" d="M310 463q-9 -123 -37 -221t-51 -127h292v470h-193zM12 -125v240h75q31 38 65.5 155.5t42.5 289.5l7 140h434v-585h95v-240h-115v125h-489v-125h-115z"/>
<glyph glyph-name="afii10022" horiz-adv-x="575" unicode="Е" d="M97 0v700h405v-115h-282v-174h252v-115h-252v-181h292v-115h-415z"/>
<glyph glyph-name="afii10024" horiz-adv-x="954" unicode="Ж" d="M284 365l-263 335h141l254 -334v334h122v-334l253 334h142l-263 -334l274 -366h-142l-264 363v-363h-122v363l-265 -363h-141z"/>
<glyph glyph-name="afii10025" horiz-adv-x="585" unicode="З" d="M275 -11q-85 0 -146.5 34.5t-93.5 83.5l67 83q33 -38 79 -62t88 -24q55 0 92 26.5t37 77.5q0 42 -32 67t-92 25h-72v115h68q41 0 71 25t30 67q0 43 -28 66t-74 23q-85 0 -142 -76l-71 82q35 49 96 79t131 30q95 0 152.5 -50.5t57.5 -141.5q0 -43 -24 -85t-70 -69v-3 q61 -15 91 -59t30 -107q0 -93 -72.5 -150t-172.5 -57z"/>
<glyph glyph-name="afii10026" horiz-adv-x="792" unicode="И" d="M205 0h-108v700h123v-498l367 498h108v-700h-123v497z"/>
<glyph glyph-name="afii10027" horiz-adv-x="792" unicode="Й" d="M208 870h115q12 -58 85 -58q75 0 80 58h115q-2 -64 -57 -103.5t-138 -39.5q-89 0 -142 39t-58 104zM205 0h-108v700h123v-498l367 498h108v-700h-123v497z"/>
<glyph glyph-name="afii10028" horiz-adv-x="672" unicode="К" d="M97 0v700h123v-332l276 332h148l-288 -326l306 -374h-156l-286 361v-361h-123z"/>
<glyph glyph-name="afii10029" horiz-adv-x="729" unicode="Л" d="M510 0v585h-204l-14 -132q-18 -178 -51.5 -280.5t-75.5 -139t-103 -36.5q-19 0 -40 3l3 122q4 -1 13 -1q18 0 32.5 8t32 35t31 73t26.5 128.5t21 194.5l10 140h441v-700h-122z"/>
<glyph glyph-name="afii10030" horiz-adv-x="901" unicode="М" d="M97 0v700h124l239 -327l228 327h116v-700h-122v506l-221 -311h-18l-223 308v-503h-123z"/>
<glyph glyph-name="afii10031" horiz-adv-x="759" unicode="Н" d="M540 0v299h-320v-299h-123v700h123v-286h320v286h122v-700h-122z"/>
<glyph glyph-name="afii10032" horiz-adv-x="819" unicode="О" d="M175 350q0 -105 67.5 -175.5t166.5 -70.5q108 0 171.5 70t63.5 176q0 108 -67.5 177t-167.5 69q-101 0 -167.5 -69t-66.5 -177zM45 350q0 154 102.5 257.5t261.5 103.5q158 0 261.5 -100t103.5 -261q0 -157 -104 -259t-261 -102q-158 0 -261 100t-103 261z"/>
<glyph glyph-name="afii10033" horiz-adv-x="752" unicode="П" d="M532 0v585h-312v-585h-123v700h558v-700h-123z"/>
<glyph glyph-name="afii10034" horiz-adv-x="612" unicode="Р" d="M308 587q-22 0 -88 -2v-215q48 -5 87 -5q58 0 94 28.5t36 84.5q0 109 -129 109zM220 0h-123v700q18 0 95.5 1t103.5 1q74 0 128.5 -18.5t84.5 -51t44 -71t14 -84.5q0 -95 -68 -161t-188 -66q-61 0 -91 3v-253z"/>
<glyph glyph-name="afii10035" horiz-adv-x="655" unicode="С" d="M583 160l47 -92q-33 -35 -94.5 -57t-129.5 -22q-161 0 -261 99t-100 262q0 157 95 259t263 102q135 0 213 -71l-55 -91q-71 47 -158 47q-99 0 -163.5 -67t-64.5 -179q0 -109 67.5 -177.5t174.5 -68.5q93 0 166 56z"/>
<glyph glyph-name="afii10036" horiz-adv-x="597" unicode="Т" d="M10 585v115h577v-115h-227v-585h-123v585h-227z"/>
<glyph glyph-name="afii10037" horiz-adv-x="683" unicode="У" d="M671 700l-238 -537q-37 -83 -82 -123t-108 -40q-61 0 -96 28l43 104q25 -17 52 -17q46 0 69 49l10 24l-309 512h139l229 -391l167 391h124z"/>
<glyph glyph-name="afii10038" horiz-adv-x="839" unicode="Ф" d="M165 360q0 -78 50 -119.5t143 -42.5v324q-94 -1 -143.5 -45t-49.5 -117zM674 360q0 73 -49 117t-144 45v-324q193 2 193 162zM358 -8v93q-147 0 -235 72.5t-88 202.5q0 129 88 201t235 74v73h123v-73q146 -2 234.5 -75t88.5 -200q0 -129 -88.5 -201.5t-234.5 -73.5v-93 h-123z"/>
<glyph glyph-name="afii10039" horiz-adv-x="669" unicode="Х" d="M650 700l-236 -343l245 -357h-144l-181 263l-180 -263h-144l245 357l-234 343h144l172 -253l169 253h144z"/>
<glyph glyph-name="afii10040" horiz-adv-x="770" unicode="Ц" d="M97 0v700h123v-585h307v585h123v-585h95v-240h-115v125h-533z"/>
<glyph glyph-name="afii10041" horiz-adv-x="667" unicode="Ч" d="M570 700v-700h-123v287q-66 -48 -167 -48q-90 0 -151.5 54t-61.5 170v237h123v-202q0 -144 123 -144q68 0 134 45v301h123z"/>
<glyph glyph-name="afii10042" horiz-adv-x="997" unicode="Ш" d="M97 0v700h123v-585h217v585h123v-585h217v585h123v-700h-803z"/>
<glyph glyph-name="afii10043" horiz-adv-x="1020" unicode="Щ" d="M97 0v700h123v-585h217v585h123v-585h217v585h123v-585h95v-240h-115v125h-783z"/>
<glyph glyph-name="afii10044" horiz-adv-x="673" unicode="Ъ" d="M354 350q-24 0 -71 -5v-229q8 0 21.5 -1t25 -1.5t22.5 -0.5q146 0 146 123q0 57 -38.5 85.5t-105.5 28.5zM7 585v115h276v-240q40 5 81 5q132 0 198 -60t66 -166q0 -112 -76 -176.5t-215 -64.5q-36 0 -97.5 1t-78.5 1v585h-154z"/>
<glyph glyph-name="afii10045" horiz-adv-x="864" unicode="Ы" d="M220 700v-240q39 5 78 5q127 0 191.5 -60t64.5 -166q0 -112 -75 -176.5t-208 -64.5q-36 0 -96.5 1t-77.5 1v700h123zM288 350q-21 0 -68 -5v-229l66 -3q138 0 138 123q0 56 -35.5 85t-100.5 29zM645 0v700h122v-700h-122z"/>
<glyph glyph-name="afii10046" horiz-adv-x="609" unicode="Ь" d="M220 700v-240q39 5 80 5q132 0 198 -60t66 -166q0 -112 -76 -176.5t-214 -64.5q-37 0 -98.5 1t-78.5 1v700h123zM290 350q-23 0 -70 -5v-229q66 -3 68 -3q146 0 146 123q0 57 -38.5 85.5t-105.5 28.5z"/>
<glyph glyph-name="afii10047" horiz-adv-x="673" unicode="Э" d="M187 299v115h312q-18 87 -85 134.5t-167 47.5q-92 0 -164 -54l-48 92q90 77 241 77q156 0 254 -99t98 -261q0 -165 -99 -263.5t-267 -98.5q-71 0 -134 20.5t-101 52.5l53 103q79 -61 180 -61q94 0 160.5 50.5t81.5 144.5h-315z"/>
<glyph glyph-name="afii10048" horiz-adv-x="1081" unicode="Ю" d="M464 350q0 -104 64 -175t157 -71q106 0 163.5 69t57.5 177q0 109 -61 177.5t-160 68.5q-95 0 -158 -69t-63 -177zM97 0v700h123v-286h119q20 131 112.5 214t229.5 83q157 0 256 -99.5t99 -261.5q0 -158 -99.5 -259.5t-255.5 -101.5q-135 0 -231.5 85t-112.5 225h-117 v-299h-123z"/>
<glyph glyph-name="afii10049" horiz-adv-x="632" unicode="Я" d="M301 357h112v228q-51 3 -77 3q-60 0 -96.5 -33t-36.5 -86q0 -45 28.5 -74.5t69.5 -37.5zM413 0v242h-101l-157 -242h-138l179 267q-54 27 -88.5 76.5t-34.5 117.5q0 105 72 173.5t216 68.5q23 0 88.5 -1.5t85.5 -1.5v-700h-122z"/>
<glyph glyph-name="afii10065" horiz-adv-x="463" unicode="а" d="M214 91q58 0 87 41v46q-29 22 -79 22q-31 0 -51.5 -14.5t-20.5 -41.5q0 -25 18 -39t46 -14zM99 334l-29 84q73 43 159 43q96 0 138 -47t42 -140v-274h-100v52q-41 -58 -133 -58q-63 0 -102 37t-39 101q0 71 46 108.5t118 37.5q62 0 102 -29v14q0 52 -19 77t-65 25 q-50 0 -118 -31z"/>
<glyph glyph-name="afii10066" horiz-adv-x="548" unicode="б" d="M155 250q1 -67 33 -110.5t85 -43.5t84.5 34.5t31.5 85.5q0 52 -29 85.5t-82 33.5q-46 0 -78.5 -24t-44.5 -61zM402 711l60 -94q-26 -31 -60 -43.5t-79.5 -22t-78.5 -25.5q-84 -39 -97 -168h2q21 37 65 60.5t93 23.5q93 0 149 -60t56 -161q0 -97 -66 -164.5t-170 -67.5 q-113 0 -178.5 77t-65.5 208q0 289 170 362q38 16 82 24.5t70.5 17.5t47.5 33z"/>
<glyph glyph-name="afii10067" horiz-adv-x="502" unicode="в" d="M251 362q-48 0 -72 -2v-99h75q30 0 49.5 13.5t19.5 38.5q0 49 -72 49zM251 191h-72v-100q68 -4 76 -4q38 0 59.5 14t21.5 38q0 52 -85 52zM64 0v450q12 0 44.5 1.5t67 2.5t65.5 1q204 0 204 -118q0 -39 -24.5 -67t-59.5 -33v-2q96 -23 96 -104q0 -136 -214 -136 q-30 0 -95 2.5t-84 2.5z"/>
<glyph glyph-name="afii10068" horiz-adv-x="374" unicode="г" d="M64 0v450h302v-108h-187v-342h-115z"/>
<glyph glyph-name="afii10069" horiz-adv-x="556" unicode="д" d="M241 296q-12 -131 -54 -189h167v235h-110zM10 -105v212h57q53 70 63 235l7 108h332v-343h75v-212h-108v105h-319v-105h-107z"/>
<glyph glyph-name="afii10070" horiz-adv-x="516" unicode="е" d="M269 365q-98 0 -118 -98h221q1 42 -27 70t-76 28zM417 126l33 -81q-66 -56 -172 -56q-109 0 -175.5 65t-66.5 171q0 101 65 168.5t173 67.5q89 0 151 -58.5t62 -150.5q0 -38 -7 -62h-325q7 -50 44 -77.5t91 -27.5q76 0 127 41z"/>
<glyph glyph-name="afii10072" horiz-adv-x="709" unicode="ж" d="M166 232l-150 218h140l134 -218l-146 -232h-137zM295 0v450h115v-450h-115zM689 450l-149 -218l161 -232h-136l-150 232l138 218h136z"/>
<glyph glyph-name="afii10073" horiz-adv-x="472" unicode="з" d="M223 -11q-59 0 -115 21.5t-81 53.5l59 72q20 -23 57.5 -39t69.5 -16q44 0 68 15t24 40q0 23 -18 37t-50 14h-84v77h79q27 0 43.5 16t16.5 39q0 49 -79 49q-62 0 -123 -52l-48 69q65 76 193 76q88 0 134 -34t46 -94q0 -33 -22 -60t-61 -40v-2q46 -9 70.5 -37.5t24.5 -68.5 q0 -63 -56 -99.5t-148 -36.5z"/>
<glyph glyph-name="afii10074" horiz-adv-x="568" unicode="и" d="M179 0h-115v450h115v-285l210 285h115v-450h-115v285z"/>
<glyph glyph-name="afii10075" horiz-adv-x="568" unicode="й" d="M131 675h105q0 -31 12.5 -52t39.5 -21q24 0 36 21t12 52h105q0 -68 -40 -111.5t-113 -43.5q-80 0 -118.5 42.5t-38.5 112.5zM179 0h-115v450h115v-285l210 285h115v-450h-115v285z"/>
<glyph glyph-name="afii10076" horiz-adv-x="515" unicode="к" d="M64 0v450h115v-450h-115zM490 450l-173 -214l194 -236h-150l-178 227l162 223h145z"/>
<glyph glyph-name="afii10077" horiz-adv-x="539" unicode="л" d="M360 0v335h-119l-3 -48q-11 -121 -36.5 -186t-64 -87.5t-102.5 -22.5l-10 112h5q35 0 62.5 47t34.5 160l7 140h341v-450h-115z"/>
<glyph glyph-name="afii10078" horiz-adv-x="631" unicode="м" d="M64 0v450h104l153 -188l145 188h101v-450h-115v275l-133 -168h-3l-137 168v-275h-115z"/>
<glyph glyph-name="afii10079" horiz-adv-x="555" unicode="н" d="M376 0v172h-197v-172h-115v450h115v-170h197v170h115v-450h-115z"/>
<glyph glyph-name="afii10080" horiz-adv-x="562" unicode="о" d="M159 225q0 -56 34.5 -92.5t87.5 -36.5q54 0 88.5 35.5t34.5 93.5q0 56 -35 92t-88 36q-52 0 -87 -35.5t-35 -92.5zM36 225q0 103 67.5 169.5t177.5 66.5t177.5 -66.5t67.5 -169.5t-67.5 -169.5t-177.5 -66.5t-177.5 66.5t-67.5 169.5z"/>
<glyph glyph-name="afii10081" horiz-adv-x="550" unicode="п" d="M371 0v342h-192v-342h-115v450h422v-450h-115z"/>
<glyph glyph-name="afii10082" horiz-adv-x="558" unicode="р" d="M282 353q-59 0 -103 -49v-182q40 -26 95 -26q58 0 92 37.5t34 95.5q0 55 -31 89.5t-87 34.5zM64 -200v650h115v-43q22 23 59.5 38.5t79.5 15.5q92 0 148 -64t56 -165q0 -105 -66 -174t-172 -69q-67 0 -105 22v-211h-115z"/>
<glyph glyph-name="afii10083" horiz-adv-x="487" unicode="с" d="M405 151l54 -84q-28 -38 -75.5 -58t-103.5 -20q-110 0 -177 65t-67 171q0 100 66 168t167 68q120 0 181 -61l-54 -91q-45 44 -112 44q-50 0 -87.5 -35.5t-37.5 -92.5q0 -58 38.5 -93.5t91.5 -35.5q66 0 116 55z"/>
<glyph glyph-name="afii10084" horiz-adv-x="445" unicode="т" d="M17 335v115h410v-115h-147v-335h-115v335h-148z"/>
<glyph glyph-name="afii10085" horiz-adv-x="503" unicode="у" d="M498 450l-177 -450q-48 -117 -85.5 -158.5t-88.5 -41.5q-49 0 -97 35l37 87q27 -16 47 -16q41 0 69 70l10 24l-208 450h138l105 -246q6 -15 22 -65q8 44 16 66l81 245h131z"/>
<glyph glyph-name="afii10086" horiz-adv-x="687" unicode="ф" d="M159 225q0 -58 32 -93.5t92 -35.5h3v257h-8q-60 0 -89.5 -36t-29.5 -92zM409 353h-8v-257h4q60 0 91.5 35t31.5 94q0 54 -30.5 91t-88.5 37zM286 -200v189h-6q-115 0 -179.5 66t-64.5 170q0 97 65.5 166.5t177.5 69.5h7v239h115v-239h8q113 0 177.5 -66.5t64.5 -169.5 q0 -105 -62 -170.5t-180 -65.5h-8v-189h-115z"/>
<glyph glyph-name="afii10087" horiz-adv-x="522" unicode="х" d="M494 450l-150 -215l160 -235h-140l-105 162l-109 -162h-133l160 229l-150 221h141l95 -149l98 149h133z"/>
<glyph glyph-name="afii10088" horiz-adv-x="566" unicode="ц" d="M64 0v450h115v-343h185v343h115v-343h75v-212h-108v105h-382z"/>
<glyph glyph-name="afii10089" horiz-adv-x="491" unicode="ч" d="M427 450v-450h-115v155q-49 -26 -112 -26q-85 0 -124 44.5t-39 132.5v144h123v-130q0 -83 73 -83q48 0 79 18v195h115z"/>
<glyph glyph-name="afii10090" horiz-adv-x="728" unicode="ш" d="M64 0v450h115v-343h127v343h115v-343h128v343h115v-450h-600z"/>
<glyph glyph-name="afii10091" horiz-adv-x="751" unicode="щ" d="M64 0v450h115v-343h127v343h115v-343h128v343h115v-343h75v-212h-108v105h-567z"/>
<glyph glyph-name="afii10092" horiz-adv-x="536" unicode="ъ" d="M300 235h-53v-135h52q86 0 86 67q0 68 -85 68zM15 342v108h232v-123h63q106 0 152 -44t46 -112q0 -73 -50 -122t-157 -49h-169v342h-117z"/>
<glyph glyph-name="afii10093" horiz-adv-x="676" unicode="ы" d="M225 235h-46v-135h45q87 0 87 67q0 68 -86 68zM497 0v450h115v-450h-115zM64 0v450h115v-123h56q106 0 152 -44t46 -112q0 -73 -50 -122t-157 -49h-162z"/>
<glyph glyph-name="afii10094" horiz-adv-x="467" unicode="ь" d="M231 235h-52v-135h51q87 0 87 67q0 68 -86 68zM64 0v450h115v-123h62q106 0 152 -44t46 -112q0 -73 -50 -122t-157 -49h-168z"/>
<glyph glyph-name="afii10095" horiz-adv-x="496" unicode="э" d="M140 189v77h200q-11 47 -46 71t-83 24q-65 0 -129 -47l-47 80q30 33 79 50t95 17q115 0 183 -64t68 -172q0 -102 -64.5 -169t-175.5 -67q-122 0 -187 67l54 76q49 -43 126 -43q52 0 85.5 25.5t42.5 74.5h-201z"/>
<glyph glyph-name="afii10096" horiz-adv-x="772" unicode="ю" d="M389 225q0 -56 30 -88.5t78 -32.5q49 0 79 32.5t30 88.5t-29.5 88.5t-79.5 32.5q-48 0 -78 -33t-30 -88zM64 0v450h122v-163h80q18 79 78.5 126.5t149.5 47.5q108 0 175 -66.5t67 -169.5q0 -102 -67.5 -169t-174.5 -67q-92 0 -153 50t-77 133h-78v-172h-122z"/>
<glyph glyph-name="afii10097" horiz-adv-x="495" unicode="я" d="M183 282q0 -27 22.5 -44.5t50.5 -17.5h60v130h-51q-39 0 -60.5 -20t-21.5 -48zM284 450h147v-450h-115v135h-64l-93 -135h-132l120 160q-34 12 -60.5 45.5t-26.5 84.5q0 71 54.5 115.5t169.5 44.5z"/>
<glyph glyph-name="afii10071" horiz-adv-x="516" unicode="ё" d="M308 599q0 29 18.5 46.5t45.5 17.5q24 0 42 -17.5t18 -46.5q0 -31 -17.5 -49t-42.5 -18q-27 0 -45.5 18t-18.5 49zM109 599q0 29 19 46.5t46 17.5q24 0 42 -17.5t18 -46.5q0 -31 -18 -49t-42 -18q-27 0 -46 18t-19 49zM269 365q-98 0 -118 -98h221q1 42 -27 70t-76 28z M417 126l33 -81q-66 -56 -172 -56q-109 0 -175.5 65t-66.5 171q0 101 65 168.5t173 67.5q89 0 151 -58.5t62 -150.5q0 -38 -7 -62h-325q7 -50 44 -77.5t91 -27.5q76 0 127 41z"/>
<glyph glyph-name="afii10099" horiz-adv-x="590" unicode="ђ" d="M7 432v93h118v175h115v-175h158v-93h-158v-118q51 49 129 49q87 0 136 -47t49 -146q0 -126 -46 -222.5t-119 -147.5h-123q83 67 127.5 157t44.5 185q0 113 -98 113q-59 0 -100 -41v-214h-115v432h-118z"/>
<glyph glyph-name="afii10100" horiz-adv-x="374" unicode="ѓ" d="M361 662l-126 -145l-69 48l105 165zM64 0v450h302v-108h-187v-342h-115z"/>
<glyph glyph-name="afii10101" horiz-adv-x="495" unicode="є" d="M356 266v-77h-202q10 -48 47 -74t90 -26q70 0 119 43l54 -76q-67 -67 -180 -67q-114 0 -181 67t-67 169q0 108 68 172t183 64q46 0 95 -17t79 -50l-47 -80q-54 47 -129 47q-48 0 -83 -24t-47 -71h201z"/>
<glyph glyph-name="afii10102" horiz-adv-x="444" unicode="ѕ" d="M292 127q0 20 -25 32.5t-61 22t-71.5 23t-60.5 43.5t-25 76q0 64 46.5 100.5t118.5 36.5q110 0 171 -57l-43 -82q-55 43 -122 43q-25 0 -40.5 -11.5t-15.5 -27.5q0 -17 18 -29.5t45 -18.5t58.5 -17t58.5 -24t45 -40t18 -64q0 -66 -49.5 -105t-132.5 -39q-58 0 -114.5 25 t-73.5 52l56 75q20 -22 63 -39t77 -17q26 0 42.5 11t16.5 31z"/>
<glyph glyph-name="afii10103" horiz-adv-x="277" unicode="і" d="M69 612q0 30 21 48.5t51 18.5q26 0 46 -18.5t20 -48.5q0 -33 -20 -52.5t-46 -19.5q-31 0 -51.5 19.5t-20.5 52.5zM81 0v450h115v-450h-115z"/>
<glyph glyph-name="afii10104" horiz-adv-x="315" unicode="ї" d="M113 0v450h115v-450h-115zM177 597q0 25 17 40.5t42 15.5q22 0 38 -15.5t16 -40.5q0 -27 -16 -43t-38 -16q-25 0 -42 16t-17 43zM25 597q0 26 17 41t42 15q21 0 37.5 -15.5t16.5 -40.5q0 -27 -16 -43t-38 -16q-26 0 -42.5 15.5t-16.5 43.5z"/>
<glyph glyph-name="afii10105" horiz-adv-x="284" unicode="ј" d="M76 612q0 30 21 48.5t51 18.5q26 0 46 -18.5t20 -48.5q0 -33 -20 -52.5t-46 -19.5q-31 0 -51.5 19.5t-20.5 52.5zM202 450v-483q0 -175 -141 -175q-74 0 -110 32l31 91q26 -16 51 -16q54 0 54 78v473h115z"/>
<glyph glyph-name="afii10106" horiz-adv-x="742" unicode="љ" d="M507 235h-32v-135h31q86 0 86 67q0 68 -85 68zM360 0v335h-119l-3 -48q-11 -121 -36.5 -186t-64 -87.5t-102.5 -22.5l-10 112h5q35 0 62.5 47t34.5 160l7 140h341v-123h42q106 0 152 -44t46 -112q0 -73 -50 -122t-157 -49h-148z"/>
<glyph glyph-name="afii10107" horiz-adv-x="759" unicode="њ" d="M523 230h-32v-130h31q87 0 87 65t-86 65zM376 0v177h-197v-177h-115v450h115v-165h197v165h115v-128h42q106 0 152 -42.5t46 -110.5q0 -73 -50 -121t-157 -48h-148z"/>
<glyph glyph-name="afii10108" horiz-adv-x="590" unicode="ћ" d="M7 432v93h118v175h115v-175h158v-93h-158v-118q51 49 129 49q87 0 136 -47.5t49 -149.5v-166h-115v151q0 50 -26 77t-73 27q-59 0 -100 -41v-214h-115v432h-118z"/>
<glyph glyph-name="afii10109" horiz-adv-x="515" unicode="ќ" d="M384 662l-126 -145l-69 48l105 165zM64 0v450h115v-450h-115zM490 450l-173 -214l194 -236h-150l-178 227l162 223h145z"/>
<glyph glyph-name="afii10110" horiz-adv-x="503" unicode="ў" d="M103 675h105q0 -31 12.5 -52t39.5 -21q24 0 36 21t12 52h105q0 -68 -40 -111.5t-113 -43.5q-80 0 -118.5 42.5t-38.5 112.5zM498 450l-177 -450q-48 -117 -85.5 -158.5t-88.5 -41.5q-49 0 -97 35l37 87q27 -16 47 -16q41 0 69 70l10 24l-208 450h138l105 -246 q6 -15 22 -65q8 44 16 66l81 245h131z"/>
<glyph glyph-name="afii10193" horiz-adv-x="540" unicode="џ" d="M64 0v450h115v-343h182v343h115v-450h-152v-118h-108v118h-152z"/>
<glyph glyph-name="afii10146" horiz-adv-x="648" unicode="Ѣ" d="M329 320q-24 0 -71 -5v-199l69 -3q73 0 109.5 23.5t36.5 84.5q0 56 -36.5 77.5t-107.5 21.5zM258 700v-80h148v-115h-148v-75q40 5 81 5q264 0 264 -211q0 -110 -75 -168t-216 -58q-36 0 -97.5 1t-78.5 1v505h-121v115h121v80h122z"/>
<glyph glyph-name="afii10194" horiz-adv-x="517" unicode="ѣ" d="M281 212h-41v-120h40q46 0 66.5 14.5t20.5 45.5t-20 45.5t-66 14.5zM7 357v93h118v250h115v-250h136v-93h-136v-60h51q198 0 198 -141q0 -70 -49.5 -113t-157.5 -43h-157v357h-118z"/>
<glyph glyph-name="afii10147" horiz-adv-x="819" unicode="Ѳ" d="M533 373q53 0 104 41q-19 82 -82 132t-146 50q-87 0 -149.5 -52.5t-79.5 -138.5q64 41 124 41q48 0 116.5 -36.5t112.5 -36.5zM304 339q-59 0 -122 -54q20 -81 82.5 -131t144.5 -50q94 0 155 54.5t76 142.5q-63 -36 -116 -36q-47 0 -113.5 37t-106.5 37zM45 350 q0 154 102.5 257.5t261.5 103.5q158 0 261.5 -100t103.5 -261q0 -157 -104 -259t-261 -102q-158 0 -261 100t-103 261z"/>
<glyph glyph-name="afii10195" horiz-adv-x="577" unicode="ѳ" d="M366 239q33 0 56 24q-11 51 -48.5 78t-84.5 27q-49 0 -87 -27.5t-48 -80.5q35 28 68 28q34 0 80 -24.5t64 -24.5zM217 211q-32 0 -61 -29q11 -49 48 -75t85 -26q49 0 86 27.5t47 80.5q-32 -28 -71 -28q-32 0 -72.5 25t-61.5 25zM36 225q0 103 68.5 169.5t184.5 66.5 q115 0 183.5 -66.5t68.5 -169.5t-68.5 -169.5t-183.5 -66.5q-116 0 -184.5 66.5t-68.5 169.5z"/>
<glyph glyph-name="afii10148" horiz-adv-x="661" unicode="Ѵ" d="M563 499l-185 -501h-93l-288 702h131l207 -518l130 378q27 78 59.5 113.5t88.5 35.5q31 0 68 -10l-16 -107q-17 5 -27 5q-26 0 -40.5 -22t-34.5 -76z"/>
<glyph glyph-name="afii10196" horiz-adv-x="492" unicode="ѵ" d="M402 268l-110 -270h-86l-209 452h137l85 -193q21 -43 34 -101q13 56 31 103l30 79q23 63 50.5 91.5t78.5 28.5q30 0 69 -10l-17 -108q-15 6 -27 6q-21 0 -34.5 -17.5t-31.5 -60.5z"/>
<glyph glyph-name="afii10050" horiz-adv-x="507" unicode="Ґ" d="M97 0v700h280v117h115v-232h-272v-585h-123z"/>
<glyph glyph-name="afii10098" horiz-adv-x="374" unicode="ґ" d="M64 0v450h195v97h107v-205h-187v-342h-115z"/>
<glyph glyph-name="endash" horiz-adv-x="599" unicode="–" d="M85 220v100h429v-100h-429z"/>
<glyph glyph-name="emdash" horiz-adv-x="814" unicode="—" d="M85 220v100h644v-100h-644z"/>
<glyph glyph-name="quoteleft" horiz-adv-x="241" unicode="‘" d="M178 550l-97 -56q-34 36 -34 93q0 63 30 105.5t70 66.5l53 -49q-45 -37 -45 -98q0 -39 23 -62z"/>
<glyph glyph-name="quotesinglbase" horiz-adv-x="241" unicode="‚" d="M63 33l97 57q34 -36 34 -93q0 -63 -30 -106.5t-70 -65.5l-53 49q45 37 45 97q0 39 -23 62z"/>
<glyph glyph-name="quotedblleft" horiz-adv-x="404" unicode="“" d="M178 550l-97 -56q-34 36 -34 93q0 63 30 105.5t70 66.5l53 -49q-45 -37 -45 -98q0 -39 23 -62zM340 550l-97 -56q-34 36 -34 93q0 63 30 105.5t70 66.5l53 -49q-45 -37 -45 -98q0 -39 23 -62z"/>
<glyph glyph-name="quotedblright" horiz-adv-x="404" unicode="”" d="M63 698l97 57q34 -36 34 -93q0 -63 -30 -106.5t-70 -65.5l-53 49q45 37 45 97q0 39 -23 62zM225 698l97 57q34 -36 34 -93q0 -63 -30 -106.5t-70 -65.5l-53 49q45 37 45 97q0 39 -23 62z"/>
<glyph glyph-name="dagger" horiz-adv-x="491" unicode="†" d="M40 395v100h152v205h107v-205h152v-100h-152v-495h-107v495h-152z"/>
<glyph glyph-name="daggerdbl" horiz-adv-x="491" unicode="‡" d="M40 395v100h152v205h107v-205h152v-100h-152v-160h152v-100h-152v-235h-107v235h-152v100h152v160h-152z"/>
<glyph glyph-name="ellipsis" horiz-adv-x="863" unicode="…" d="M55 75q0 28 22 51t58 23q31 0 52 -23t21 -51q0 -32 -21 -56t-52 -24q-36 0 -58 24t-22 56zM355 75q0 28 22 51t58 23q31 0 52 -23t21 -51q0 -32 -21 -56t-52 -24q-36 0 -58 24t-22 56zM655 75q0 28 22 51t58 23q31 0 52 -23t21 -51q0 -32 -21 -56t-52 -24q-36 0 -58 24 t-22 56z"/>
<glyph glyph-name="perthousand" horiz-adv-x="1345" unicode="‰" d="M587 169q0 -39 25.5 -62.5t63.5 -23.5q40 0 65 23.5t25 62.5q0 38 -25.5 61.5t-64.5 23.5q-38 0 -63.5 -23.5t-25.5 -61.5zM479 169q0 80 55.5 129t141.5 49t141.5 -49t55.5 -129t-55.5 -129.5t-141.5 -49.5t-141.5 49.5t-55.5 129.5zM145 531q0 -39 25.5 -62.5 t63.5 -23.5q40 0 65 23.5t25 62.5q0 38 -25.5 61.5t-64.5 23.5q-38 0 -63.5 -23.5t-25.5 -61.5zM37 531q0 80 55.5 129t141.5 49t141.5 -49t55.5 -129t-55.5 -129.5t-141.5 -49.5t-141.5 49.5t-55.5 129.5zM170 35l505 676l65 -49l-504 -673zM1021 169q0 -39 25.5 -62.5 t63.5 -23.5q40 0 65 23.5t25 62.5q0 38 -25.5 61.5t-64.5 23.5q-38 0 -63.5 -23.5t-25.5 -61.5zM913 169q0 80 55.5 129t141.5 49t141.5 -49t55.5 -129t-55.5 -129.5t-141.5 -49.5t-141.5 49.5t-55.5 129.5z"/>
<glyph glyph-name="guilsinglleft" horiz-adv-x="351" unicode="‹" d="M230 22l-193 226v4l197 226l75 -67l-139 -161l138 -163z"/>
<glyph glyph-name="guilsinglright" horiz-adv-x="351" unicode="›" d="M314 248l-193 -226l-78 65l138 163l-139 161l75 67l197 -226v-4z"/>
<glyph glyph-name="fraction" horiz-adv-x="210" unicode="⁄" d="M-180 35l505 676l65 -49l-504 -673z"/>
<glyph glyph-name="Euro" d="M18 397l35 93h75q35 101 119 161t204 60q81 0 132 -28l-43 -106q-36 19 -90 19q-58 0 -106 -27.5t-77 -78.5h250l-35 -93h-244q-3 -23 -3 -47t2 -35h222l-31 -93h-163q29 -56 82 -87t119 -31q55 0 87 15l19 -111q-44 -19 -116 -19q-121 0 -209 62t-123 171h-105l35 93h52 q-1 11 -1 35q0 15 2 47h-89z" unicode="€"/>
<glyph glyph-name="trademark" horiz-adv-x="865" unicode="™" d="M17 596v104h323v-104h-107v-211h-108v211h-108zM379 385v315h97l119 -108l113 108h94v-315h-109v179l-100 -97h-2l-104 97v-179h-108z"/>
<glyph glyph-name="arrowleft" horiz-adv-x="643" unicode="←" d="M323 556l81 -82l-144 -143h343v-115h-343l144 -145l-81 -81l-283 283z"/>
<glyph glyph-name="arrowup" horiz-adv-x="646" unicode="↑" d="M121 199l-81 81l283 283l283 -283l-82 -81l-144 144v-343h-115v343z"/>
<glyph glyph-name="arrowright" horiz-adv-x="643" unicode="→" d="M239 474l81 82l283 -283l-283 -283l-81 81l144 145h-343v115h343z"/>
<glyph glyph-name="arrowdown" horiz-adv-x="646" unicode="↓" d="M40 263l81 81l144 -144v343h115v-343l144 144l82 -81l-283 -283z"/>
<glyph glyph-name="partialdiff" horiz-adv-x="594" unicode="∂" d="M159 211q0 -48 31.5 -81.5t83.5 -33.5q63 0 103 55t50 137q-53 65 -134 65q-58 0 -96 -41.5t-38 -100.5zM36 201q0 108 70 184t182 76q102 0 148 -66q0 98 -60.5 153t-176.5 60l17 103q163 -3 252.5 -86.5t89.5 -235.5q0 -173 -77 -286.5t-220 -113.5q-102 0 -163.5 61 t-61.5 151z"/>
<glyph glyph-name="product" horiz-adv-x="882" unicode="∏" d="M662 -200v785h-442v-785h-123v900h688v-900h-123z"/>
<glyph glyph-name="summation" horiz-adv-x="642" unicode="∑" d="M323 250l-283 365v85h562v-115h-390l253 -335l-261 -335h398v-115h-562v84z"/>
<glyph glyph-name="minus" d="M66 310v100h464v-100h-464z" unicode="−"/>
<glyph glyph-name="radical" horiz-adv-x="623" unicode="√" d="M7 335v115h179l152 -256l122 506h293v-115h-193l-146 -587h-100l-207 337h-100z"/>
<glyph glyph-name="infinity" horiz-adv-x="756" unicode="∞" d="M531 416q-28 0 -50 -19t-47 -55q56 -74 104 -74q29 0 47 21t18 52t-19 53t-53 22zM224 268q51 0 97 66q-28 41 -49.5 61.5t-46.5 20.5q-33 0 -53 -21.5t-20 -53.5q0 -34 20.5 -53.5t51.5 -19.5zM552 168q-99 0 -176 92q-70 -92 -164 -92q-66 0 -116.5 48t-50.5 125 q0 71 47.5 123t122.5 52q87 0 162 -97q69 97 174 97q72 0 116 -50t44 -129q0 -69 -44.5 -119t-114.5 -50z"/>
<glyph glyph-name="approxequal" d="M92 383l-50 74q70 80 146 80q42 0 118 -34t115 -34q48 0 88 45l45 -79q-70 -66 -134 -66q-41 0 -116 34t-109 34q-49 0 -103 -54zM92 193l-50 74q70 80 146 80q42 0 118 -34t115 -34q48 0 88 45l45 -79q-70 -66 -134 -66q-41 0 -116 34t-109 34q-49 0 -103 -54z" unicode="≈"/>
<glyph glyph-name="notequal" d="M66 405v100h234l78 206l88 -33l-65 -173h129v-100h-166l-33 -90h199v-100h-237l-84 -226l-90 33l72 193h-125v100h163l34 90h-197z" unicode="≠"/>
<glyph glyph-name="lessequal" d="M513 161l-464 271v49l464 269v-124l-306 -169l306 -171v-125zM49 242v105l464 -266v-110z" unicode="≤"/>
<glyph glyph-name="greaterequal" d="M547 432l-465 -271v125l307 171l-307 169v124l465 -269v-49zM547 347v-105l-465 -271v110z" unicode="≥"/>
<glyph glyph-name="lozenge" horiz-adv-x="488" unicode="◊" d="M146 250l98 -147l98 157l-98 144zM197 -2l-167 251l168 267h93l167 -256l-168 -262h-93z"/>
<glyph glyph-name="spade" horiz-adv-x="632" unicode="♠" d="M316 510q88 -55 172 -151t84 -160q0 -42 -30 -73t-87 -31q-79 0 -131 72q28 -119 107 -167h-230q73 52 105 164q-51 -69 -129 -69q-58 0 -87.5 31t-29.5 74q0 63 84 159t172 151z"/>
<glyph glyph-name="club" horiz-adv-x="612" unicode="♣" d="M177 381q0 53 38 91t91 38t91 -38t38 -91q0 -7 -2 -19q50 -4 84.5 -41t34.5 -87q0 -53 -38 -91t-91 -38q-66 0 -104 53q31 -115 102 -158h-230q63 44 100 156q-40 -51 -102 -51q-53 0 -91 38t-38 91q0 50 34 87t84 41q-1 6 -1 19z"/>
<glyph glyph-name="heart" horiz-adv-x="649" unicode="♥" d="M325 0q-93 70 -179 181.5t-86 188.5q0 53 30.5 91.5t90.5 38.5q88 0 144 -104q54 104 143 104q59 0 90 -38t31 -91q0 -77 -85.5 -188.5t-178.5 -182.5z"/>
<glyph glyph-name="diamond" horiz-adv-x="583" unicode="♦" d="M523 249q-109 -109 -232 -268q-103 136 -231 268q108 113 231 269q120 -153 232 -269z"/>
</font>
</defs>
</svg>
